<svg xmlns="http://www.w3.org/2000/svg" xmlns:xlink="http://www.w3.org/1999/xlink" width="500" zoomAndPan="magnify" viewBox="0 0 375 374.999991" height="500" preserveAspectRatio="xMidYMid meet" version="1.0"><defs><clipPath id="cf0263477d"><path d="M 187.5 0 C 83.945312 0 0 83.945312 0 187.5 C 0 291.054688 83.945312 375 187.5 375 C 291.054688 375 375 291.054688 375 187.5 C 375 83.945312 291.054688 0 187.5 0 Z M 187.5 0 " clip-rule="nonzero"/></clipPath><clipPath id="6b0e120b93"><path d="M 164 192 L 356.25 192 L 356.25 356.25 L 164 356.25 Z M 164 192 " clip-rule="nonzero"/></clipPath><clipPath id="8131c90a81"><path d="M 18.75 163 L 183 163 L 183 356.25 L 18.75 356.25 Z M 18.75 163 " clip-rule="nonzero"/></clipPath><clipPath id="4fc82eaed5"><path d="M 18.75 18.75 L 210 18.75 L 210 183 L 18.75 183 Z M 18.75 18.75 " clip-rule="nonzero"/></clipPath><clipPath id="dff39d3f53"><path d="M 192 18.75 L 356.25 18.75 L 356.25 209 L 192 209 Z M 192 18.75 " clip-rule="nonzero"/></clipPath><clipPath id="d3b91c4804"><path d="M 134 97 L 174.015625 97 L 174.015625 134 L 134 134 Z M 134 97 " clip-rule="nonzero"/></clipPath><clipPath id="a892bdab76"><path d="M 140 67.015625 L 167 67.015625 L 167 93 L 140 93 Z M 140 67.015625 " clip-rule="nonzero"/></clipPath><clipPath id="5afeb25904"><path d="M 69.765625 97 L 110 97 L 110 134 L 69.765625 134 Z M 69.765625 97 " clip-rule="nonzero"/></clipPath><clipPath id="2429fc3688"><path d="M 77 67.015625 L 104 67.015625 L 104 93 L 77 93 Z M 77 67.015625 " clip-rule="nonzero"/></clipPath><clipPath id="3b96ff37be"><path d="M 113 239 L 153.605469 239 L 153.605469 276 L 113 276 Z M 113 239 " clip-rule="nonzero"/></clipPath><clipPath id="3556b4c734"><path d="M 120 209.1875 L 146 209.1875 L 146 235 L 120 235 Z M 120 209.1875 " clip-rule="nonzero"/></clipPath><clipPath id="efba980776"><path d="M 49.355469 239 L 90 239 L 90 276 L 49.355469 276 Z M 49.355469 239 " clip-rule="nonzero"/></clipPath><clipPath id="002a39e60c"><path d="M 57 209.1875 L 83 209.1875 L 83 235 L 57 235 Z M 57 209.1875 " clip-rule="nonzero"/></clipPath><clipPath id="fbfa9257a8"><path d="M 270 259 L 310.394531 259 L 310.394531 297 L 270 297 Z M 270 259 " clip-rule="nonzero"/></clipPath><clipPath id="89883a00b9"><path d="M 277 229.476562 L 303 229.476562 L 303 255 L 277 255 Z M 277 229.476562 " clip-rule="nonzero"/></clipPath><clipPath id="b90daa15a1"><path d="M 206.144531 259 L 247 259 L 247 297 L 206.144531 297 Z M 206.144531 259 " clip-rule="nonzero"/></clipPath><clipPath id="43e3f53018"><path d="M 214 229.476562 L 240 229.476562 L 240 255 L 214 255 Z M 214 229.476562 " clip-rule="nonzero"/></clipPath><clipPath id="3d040a0c19"><path d="M 282 120 L 322.511719 120 L 322.511719 158 L 282 158 Z M 282 120 " clip-rule="nonzero"/></clipPath><clipPath id="a8b1dbea60"><path d="M 289 90.429688 L 315 90.429688 L 315 116 L 289 116 Z M 289 90.429688 " clip-rule="nonzero"/></clipPath><clipPath id="91c023c69a"><path d="M 218.261719 120 L 259 120 L 259 158 L 218.261719 158 Z M 218.261719 120 " clip-rule="nonzero"/></clipPath><clipPath id="ce5a0dcb63"><path d="M 226 90.429688 L 252 90.429688 L 252 116 L 226 116 Z M 226 90.429688 " clip-rule="nonzero"/></clipPath></defs><g clip-path="url(#cf0263477d)"><rect x="-37.5" width="450" fill="#f17950" y="-37.499999" height="449.999989" fill-opacity="1"/></g><g clip-path="url(#6b0e120b93)"><path fill="#f1f1f1" d="M 356.25 192.273438 L 289.492188 192.273438 C 288.992188 194.84375 288.164062 197.375 287.027344 199.785156 C 283.363281 207.582031 276.585938 213.648438 268.417969 216.4375 L 267.097656 216.863281 C 266.886719 216.929688 266.671875 216.996094 266.453125 217.058594 C 264.421875 217.605469 262.335938 217.957031 260.246094 218.105469 C 258.828125 218.191406 257.308594 218.191406 255.90625 218.105469 C 253.8125 217.960938 251.71875 217.613281 249.6875 217.058594 C 249.472656 217.003906 249.253906 216.929688 249.046875 216.863281 L 247.703125 216.429688 C 239.554688 213.648438 232.777344 207.582031 229.113281 199.785156 C 227.980469 197.375 227.15625 194.851562 226.648438 192.273438 L 192.3125 192.273438 L 192.3125 283.078125 L 189.296875 283.011719 C 188.316406 283 187.460938 282.980469 187.3125 282.972656 L 186.972656 282.957031 C 174.601562 282.957031 164.523438 293.050781 164.523438 305.449219 C 164.523438 317.648438 174.621094 327.945312 187.019531 327.945312 C 187.539062 327.921875 188.410156 327.898438 189.300781 327.878906 L 192.3125 327.820312 L 192.3125 356.25 C 281.832031 353.738281 353.765625 281.785156 356.25 192.273438 Z M 356.25 192.273438 " fill-opacity="1" fill-rule="nonzero"/></g><g clip-path="url(#8131c90a81)"><path fill="#f1f1f1" d="M 182.671875 356.25 L 182.671875 337.1875 C 180.730469 336.917969 178.730469 336.433594 176.726562 335.757812 C 165.75 332.011719 157.632812 322.636719 155.53125 311.28125 C 155.390625 310.527344 155.28125 309.722656 155.1875 308.90625 L 155.132812 308.507812 C 155.039062 307.480469 154.992188 306.457031 154.992188 305.449219 C 154.992188 304.4375 155.039062 303.410156 155.132812 302.40625 L 155.175781 302.121094 C 155.28125 301.175781 155.390625 300.367188 155.53125 299.609375 C 157.507812 288.898438 165.042969 279.730469 175.195312 275.683594 C 177.605469 274.722656 180.121094 274.0625 182.667969 273.710938 L 182.667969 192.273438 L 155.957031 192.273438 C 155.957031 192.273438 156.132812 188.910156 156.132812 188.910156 C 156.476562 182.222656 154.964844 176.003906 150.347656 170.957031 C 146.121094 166.332031 140.054688 163.644531 133.785156 163.644531 C 127.492188 163.644531 121.390625 166.519531 117.144531 171.109375 C 112.453125 176.179688 111.082031 182.175781 111.433594 188.890625 L 111.609375 192.277344 L 18.75 192.277344 C 21.234375 281.785156 93.167969 353.738281 182.671875 356.25 Z M 182.671875 356.25 " fill-opacity="1" fill-rule="nonzero"/></g><g clip-path="url(#4fc82eaed5)"><path fill="#f1f1f1" d="M 203.863281 96.023438 C 212.949219 84.871094 209.789062 67.476562 196.320312 61.449219 C 193.515625 60.195312 190.457031 59.445312 187.371094 59.398438 L 182.667969 59.324219 L 182.667969 18.757812 C 93.167969 21.261719 21.234375 93.230469 18.75 182.734375 L 101.929688 182.734375 C 102.199219 180.222656 102.78125 177.71875 103.660156 175.28125 C 107.855469 163.679688 118.472656 155.417969 130.71875 154.25 C 132.71875 154.054688 134.855469 154.054688 136.855469 154.25 C 149.820312 155.492188 160.953125 164.753906 164.5625 177.300781 C 165.082031 179.101562 165.449219 180.933594 165.644531 182.734375 L 182.671875 182.734375 L 182.671875 104.421875 C 182.671875 104.421875 187.363281 104.347656 187.378906 104.347656 C 193.992188 104.238281 199.871094 100.925781 203.863281 96.023438 Z M 203.863281 96.023438 " fill-opacity="1" fill-rule="nonzero"/></g><g clip-path="url(#dff39d3f53)"><path fill="#f1f1f1" d="M 280.507812 187.269531 L 280.730469 182.734375 L 356.25 182.734375 C 353.765625 93.183594 281.789062 21.21875 192.246094 18.75 L 192.246094 50.277344 C 194.769531 50.699219 197.234375 51.425781 199.574219 52.4375 C 208.539062 56.300781 215.410156 64.210938 217.957031 73.613281 C 218.109375 74.179688 218.246094 74.789062 218.375 75.390625 L 218.523438 76.039062 C 218.699219 76.988281 218.832031 77.949219 218.921875 78.90625 C 219.015625 79.890625 219.0625 80.890625 219.0625 81.882812 C 219.0625 82.882812 219.015625 83.878906 218.921875 84.851562 C 218.832031 85.804688 218.699219 86.769531 218.523438 87.722656 C 218.503906 87.851562 218.46875 87.972656 218.441406 88.097656 L 218.375 88.371094 C 218.246094 88.976562 218.109375 89.585938 217.949219 90.160156 C 215.429688 99.480469 208.621094 107.371094 199.730469 111.246094 C 197.339844 112.292969 194.824219 113.039062 192.246094 113.472656 L 192.246094 182.742188 L 235.417969 182.742188 L 235.640625 187.277344 C 235.953125 193.507812 238.746094 199.183594 243.519531 203.261719 C 247.589844 206.722656 252.753906 208.632812 258.070312 208.632812 C 263.390625 208.632812 268.5625 206.722656 272.625 203.253906 C 277.394531 199.175781 280.199219 193.5 280.507812 187.269531 Z M 280.507812 187.269531 " fill-opacity="1" fill-rule="nonzero"/></g><path fill="#f17950" d="M 127.472656 107.394531 L 116.601562 107.394531 C 108.109375 107.394531 101.230469 114.273438 101.230469 122.761719 L 101.230469 140.261719 C 114.65625 145.152344 129.394531 145.152344 142.820312 140.261719 L 142.820312 122.761719 C 142.839844 114.273438 135.960938 107.394531 127.472656 107.394531 Z M 127.472656 107.394531 " fill-opacity="1" fill-rule="nonzero"/><path fill="#f17950" d="M 134.644531 89.746094 C 134.644531 90.574219 134.5625 91.394531 134.402344 92.207031 C 134.242188 93.015625 134 93.804688 133.683594 94.570312 C 133.367188 95.335938 132.980469 96.0625 132.519531 96.75 C 132.058594 97.4375 131.535156 98.074219 130.953125 98.660156 C 130.367188 99.246094 129.730469 99.769531 129.039062 100.230469 C 128.351562 100.6875 127.625 101.078125 126.859375 101.394531 C 126.097656 101.710938 125.308594 101.949219 124.496094 102.113281 C 123.683594 102.273438 122.863281 102.355469 122.035156 102.355469 C 121.207031 102.355469 120.386719 102.273438 119.578125 102.113281 C 118.765625 101.949219 117.976562 101.710938 117.210938 101.394531 C 116.445312 101.078125 115.71875 100.6875 115.03125 100.230469 C 114.34375 99.769531 113.707031 99.246094 113.121094 98.660156 C 112.535156 98.074219 112.011719 97.4375 111.554688 96.75 C 111.09375 96.0625 110.703125 95.335938 110.386719 94.570312 C 110.070312 93.804688 109.832031 93.015625 109.671875 92.207031 C 109.507812 91.394531 109.429688 90.574219 109.429688 89.746094 C 109.429688 88.917969 109.507812 88.097656 109.671875 87.285156 C 109.832031 86.472656 110.070312 85.6875 110.386719 84.921875 C 110.703125 84.15625 111.09375 83.429688 111.554688 82.742188 C 112.011719 82.054688 112.535156 81.417969 113.121094 80.832031 C 113.707031 80.246094 114.34375 79.722656 115.03125 79.261719 C 115.71875 78.804688 116.445312 78.414062 117.210938 78.097656 C 117.976562 77.78125 118.765625 77.542969 119.578125 77.378906 C 120.386719 77.21875 121.207031 77.136719 122.035156 77.136719 C 122.863281 77.136719 123.683594 77.21875 124.496094 77.378906 C 125.308594 77.542969 126.097656 77.78125 126.859375 78.097656 C 127.625 78.414062 128.351562 78.804688 129.039062 79.261719 C 129.730469 79.722656 130.367188 80.246094 130.953125 80.832031 C 131.535156 81.417969 132.058594 82.054688 132.519531 82.742188 C 132.980469 83.429688 133.367188 84.15625 133.683594 84.921875 C 134 85.6875 134.242188 86.472656 134.402344 87.285156 C 134.5625 88.097656 134.644531 88.917969 134.644531 89.746094 Z M 134.644531 89.746094 " fill-opacity="1" fill-rule="nonzero"/><g clip-path="url(#d3b91c4804)"><path fill="#f17950" d="M 158.941406 97.273438 L 148.066406 97.273438 C 142.085938 97.273438 136.902344 100.703125 134.371094 105.699219 C 141.105469 108.4375 145.871094 115.046875 145.871094 122.738281 L 145.871094 133.320312 C 155.40625 134.53125 165.171875 133.464844 174.308594 130.140625 L 174.308594 112.640625 C 174.308594 104.152344 167.429688 97.273438 158.941406 97.273438 Z M 158.941406 97.273438 " fill-opacity="1" fill-rule="nonzero"/></g><g clip-path="url(#a892bdab76)"><path fill="#f17950" d="M 166.113281 79.625 C 166.113281 80.453125 166.03125 81.273438 165.871094 82.085938 C 165.707031 82.898438 165.46875 83.6875 165.152344 84.449219 C 164.835938 85.214844 164.445312 85.941406 163.988281 86.628906 C 163.527344 87.320312 163.003906 87.957031 162.417969 88.542969 C 161.832031 89.125 161.195312 89.648438 160.507812 90.109375 C 159.820312 90.570312 159.09375 90.957031 158.328125 91.273438 C 157.5625 91.589844 156.773438 91.832031 155.964844 91.992188 C 155.152344 92.152344 154.332031 92.234375 153.503906 92.234375 C 152.675781 92.234375 151.855469 92.152344 151.042969 91.992188 C 150.230469 91.832031 149.445312 91.589844 148.679688 91.273438 C 147.914062 90.957031 147.1875 90.570312 146.5 90.109375 C 145.8125 89.648438 145.175781 89.125 144.589844 88.542969 C 144.003906 87.957031 143.480469 87.320312 143.019531 86.628906 C 142.5625 85.941406 142.171875 85.214844 141.855469 84.449219 C 141.539062 83.6875 141.300781 82.898438 141.136719 82.085938 C 140.976562 81.273438 140.894531 80.453125 140.894531 79.625 C 140.894531 78.796875 140.976562 77.976562 141.136719 77.167969 C 141.300781 76.355469 141.539062 75.566406 141.855469 74.800781 C 142.171875 74.035156 142.5625 73.308594 143.019531 72.621094 C 143.480469 71.933594 144.003906 71.296875 144.589844 70.710938 C 145.175781 70.125 145.8125 69.601562 146.5 69.144531 C 147.1875 68.683594 147.914062 68.292969 148.679688 67.976562 C 149.445312 67.660156 150.230469 67.421875 151.042969 67.261719 C 151.855469 67.097656 152.675781 67.019531 153.503906 67.019531 C 154.332031 67.019531 155.152344 67.097656 155.964844 67.261719 C 156.773438 67.421875 157.5625 67.660156 158.328125 67.976562 C 159.09375 68.292969 159.820312 68.683594 160.507812 69.144531 C 161.195312 69.601562 161.832031 70.125 162.417969 70.710938 C 163.003906 71.296875 163.527344 71.933594 163.988281 72.621094 C 164.445312 73.308594 164.835938 74.035156 165.152344 74.800781 C 165.46875 75.566406 165.707031 76.355469 165.871094 77.167969 C 166.03125 77.976562 166.113281 78.796875 166.113281 79.625 Z M 166.113281 79.625 " fill-opacity="1" fill-rule="nonzero"/></g><g clip-path="url(#5afeb25904)"><path fill="#f17950" d="M 109.699219 105.71875 C 107.171875 100.722656 101.984375 97.292969 96.003906 97.292969 L 85.132812 97.292969 C 76.644531 97.273438 69.765625 104.152344 69.765625 112.640625 L 69.765625 130.140625 C 78.921875 133.488281 88.667969 134.53125 98.199219 133.320312 L 98.199219 122.738281 C 98.199219 115.046875 102.96875 108.4375 109.699219 105.71875 Z M 109.699219 105.71875 " fill-opacity="1" fill-rule="nonzero"/></g><g clip-path="url(#2429fc3688)"><path fill="#f17950" d="M 103.175781 79.625 C 103.175781 80.453125 103.097656 81.273438 102.933594 82.085938 C 102.773438 82.898438 102.535156 83.6875 102.21875 84.449219 C 101.898438 85.214844 101.511719 85.941406 101.050781 86.628906 C 100.59375 87.320312 100.070312 87.957031 99.484375 88.542969 C 98.898438 89.125 98.261719 89.648438 97.574219 90.109375 C 96.886719 90.570312 96.160156 90.957031 95.394531 91.273438 C 94.628906 91.589844 93.839844 91.832031 93.027344 91.992188 C 92.214844 92.152344 91.398438 92.234375 90.570312 92.234375 C 89.742188 92.234375 88.921875 92.152344 88.109375 91.992188 C 87.296875 91.832031 86.507812 91.589844 85.742188 91.273438 C 84.980469 90.957031 84.253906 90.570312 83.5625 90.109375 C 82.875 89.648438 82.238281 89.125 81.652344 88.542969 C 81.066406 87.957031 80.546875 87.320312 80.085938 86.628906 C 79.625 85.941406 79.238281 85.214844 78.921875 84.449219 C 78.605469 83.6875 78.363281 82.898438 78.203125 82.085938 C 78.042969 81.273438 77.960938 80.453125 77.960938 79.625 C 77.960938 78.796875 78.042969 77.976562 78.203125 77.167969 C 78.363281 76.355469 78.605469 75.566406 78.921875 74.800781 C 79.238281 74.035156 79.625 73.308594 80.085938 72.621094 C 80.546875 71.933594 81.066406 71.296875 81.652344 70.710938 C 82.238281 70.125 82.875 69.601562 83.5625 69.144531 C 84.253906 68.683594 84.980469 68.292969 85.742188 67.976562 C 86.507812 67.660156 87.296875 67.421875 88.109375 67.261719 C 88.921875 67.097656 89.742188 67.019531 90.570312 67.019531 C 91.398438 67.019531 92.214844 67.097656 93.027344 67.261719 C 93.839844 67.421875 94.628906 67.660156 95.394531 67.976562 C 96.160156 68.292969 96.886719 68.683594 97.574219 69.144531 C 98.261719 69.601562 98.898438 70.125 99.484375 70.710938 C 100.070312 71.296875 100.59375 71.933594 101.050781 72.621094 C 101.511719 73.308594 101.898438 74.035156 102.21875 74.800781 C 102.535156 75.566406 102.773438 76.355469 102.933594 77.167969 C 103.097656 77.976562 103.175781 78.796875 103.175781 79.625 Z M 103.175781 79.625 " fill-opacity="1" fill-rule="nonzero"/></g><path fill="#f17950" d="M 107.0625 249.5625 L 96.1875 249.5625 C 87.699219 249.5625 80.820312 256.441406 80.820312 264.929688 L 80.820312 282.433594 C 94.246094 287.324219 108.984375 287.324219 122.410156 282.433594 L 122.410156 264.929688 C 122.429688 256.441406 115.550781 249.5625 107.0625 249.5625 Z M 107.0625 249.5625 " fill-opacity="1" fill-rule="nonzero"/><path fill="#f17950" d="M 114.234375 231.917969 C 114.234375 232.746094 114.152344 233.566406 113.992188 234.375 C 113.828125 235.1875 113.589844 235.976562 113.273438 236.742188 C 112.957031 237.507812 112.566406 238.234375 112.109375 238.921875 C 111.648438 239.609375 111.125 240.246094 110.539062 240.832031 C 109.953125 241.417969 109.316406 241.941406 108.628906 242.398438 C 107.941406 242.859375 107.214844 243.25 106.449219 243.566406 C 105.683594 243.882812 104.898438 244.121094 104.085938 244.28125 C 103.273438 244.445312 102.453125 244.523438 101.625 244.523438 C 100.796875 244.523438 99.976562 244.445312 99.164062 244.28125 C 98.355469 244.121094 97.566406 243.882812 96.800781 243.566406 C 96.035156 243.25 95.308594 242.859375 94.621094 242.398438 C 93.933594 241.941406 93.296875 241.417969 92.710938 240.832031 C 92.125 240.246094 91.601562 239.609375 91.140625 238.921875 C 90.683594 238.234375 90.292969 237.507812 89.976562 236.742188 C 89.660156 235.976562 89.421875 235.1875 89.257812 234.375 C 89.097656 233.566406 89.015625 232.746094 89.015625 231.917969 C 89.015625 231.089844 89.097656 230.269531 89.257812 229.457031 C 89.421875 228.644531 89.660156 227.855469 89.976562 227.09375 C 90.292969 226.328125 90.683594 225.601562 91.140625 224.914062 C 91.601562 224.222656 92.125 223.585938 92.710938 223 C 93.296875 222.417969 93.933594 221.894531 94.621094 221.433594 C 95.308594 220.972656 96.035156 220.585938 96.800781 220.269531 C 97.566406 219.953125 98.355469 219.710938 99.164062 219.550781 C 99.976562 219.390625 100.796875 219.308594 101.625 219.308594 C 102.453125 219.308594 103.273438 219.390625 104.085938 219.550781 C 104.898438 219.710938 105.683594 219.953125 106.449219 220.269531 C 107.214844 220.585938 107.941406 220.972656 108.628906 221.433594 C 109.316406 221.894531 109.953125 222.417969 110.539062 223 C 111.125 223.585938 111.648438 224.222656 112.109375 224.914062 C 112.566406 225.601562 112.957031 226.328125 113.273438 227.09375 C 113.589844 227.855469 113.828125 228.644531 113.992188 229.457031 C 114.152344 230.269531 114.234375 231.089844 114.234375 231.917969 Z M 114.234375 231.917969 " fill-opacity="1" fill-rule="nonzero"/><g clip-path="url(#3b96ff37be)"><path fill="#f17950" d="M 138.527344 239.445312 L 127.65625 239.445312 C 121.675781 239.445312 116.492188 242.871094 113.960938 247.871094 C 120.695312 250.609375 125.460938 257.214844 125.460938 264.910156 L 125.460938 275.492188 C 134.996094 276.703125 144.757812 275.636719 153.898438 272.3125 L 153.898438 254.8125 C 153.898438 246.324219 147.019531 239.445312 138.527344 239.445312 Z M 138.527344 239.445312 " fill-opacity="1" fill-rule="nonzero"/></g><g clip-path="url(#3556b4c734)"><path fill="#f17950" d="M 145.699219 221.796875 C 145.699219 222.625 145.621094 223.445312 145.457031 224.257812 C 145.296875 225.070312 145.058594 225.855469 144.742188 226.621094 C 144.425781 227.386719 144.035156 228.113281 143.574219 228.800781 C 143.117188 229.488281 142.59375 230.125 142.007812 230.710938 C 141.421875 231.296875 140.785156 231.820312 140.097656 232.28125 C 139.410156 232.738281 138.683594 233.128906 137.917969 233.445312 C 137.152344 233.761719 136.363281 234 135.550781 234.164062 C 134.742188 234.324219 133.921875 234.40625 133.09375 234.40625 C 132.265625 234.40625 131.445312 234.324219 130.632812 234.164062 C 129.820312 234 129.03125 233.761719 128.269531 233.445312 C 127.503906 233.128906 126.777344 232.738281 126.089844 232.28125 C 125.398438 231.820312 124.761719 231.296875 124.175781 230.710938 C 123.59375 230.125 123.070312 229.488281 122.609375 228.800781 C 122.148438 228.113281 121.761719 227.386719 121.445312 226.621094 C 121.128906 225.855469 120.886719 225.070312 120.726562 224.257812 C 120.566406 223.445312 120.484375 222.625 120.484375 221.796875 C 120.484375 220.96875 120.566406 220.148438 120.726562 219.335938 C 120.886719 218.527344 121.128906 217.738281 121.445312 216.972656 C 121.761719 216.207031 122.148438 215.480469 122.609375 214.792969 C 123.070312 214.105469 123.59375 213.46875 124.175781 212.882812 C 124.761719 212.296875 125.398438 211.773438 126.089844 211.3125 C 126.777344 210.855469 127.503906 210.464844 128.269531 210.148438 C 129.03125 209.832031 129.820312 209.59375 130.632812 209.429688 C 131.445312 209.269531 132.265625 209.1875 133.09375 209.1875 C 133.921875 209.1875 134.742188 209.269531 135.550781 209.429688 C 136.363281 209.59375 137.152344 209.832031 137.917969 210.148438 C 138.683594 210.464844 139.410156 210.855469 140.097656 211.3125 C 140.785156 211.773438 141.421875 212.296875 142.007812 212.882812 C 142.59375 213.46875 143.117188 214.105469 143.574219 214.792969 C 144.035156 215.480469 144.425781 216.207031 144.742188 216.972656 C 145.058594 217.738281 145.296875 218.527344 145.457031 219.335938 C 145.621094 220.148438 145.699219 220.96875 145.699219 221.796875 Z M 145.699219 221.796875 " fill-opacity="1" fill-rule="nonzero"/></g><g clip-path="url(#efba980776)"><path fill="#f17950" d="M 89.289062 247.890625 C 86.757812 242.894531 81.574219 239.464844 75.59375 239.464844 L 64.722656 239.464844 C 56.234375 239.445312 49.355469 246.324219 49.355469 254.8125 L 49.355469 272.3125 C 58.511719 275.65625 68.253906 276.703125 77.789062 275.492188 L 77.789062 264.910156 C 77.789062 257.214844 82.558594 250.609375 89.289062 247.890625 Z M 89.289062 247.890625 " fill-opacity="1" fill-rule="nonzero"/></g><g clip-path="url(#002a39e60c)"><path fill="#f17950" d="M 82.765625 221.796875 C 82.765625 222.625 82.683594 223.445312 82.523438 224.257812 C 82.363281 225.070312 82.121094 225.855469 81.804688 226.621094 C 81.488281 227.386719 81.101562 228.113281 80.640625 228.800781 C 80.179688 229.488281 79.660156 230.125 79.074219 230.710938 C 78.488281 231.296875 77.851562 231.820312 77.164062 232.28125 C 76.472656 232.738281 75.746094 233.128906 74.984375 233.445312 C 74.21875 233.761719 73.429688 234 72.617188 234.164062 C 71.804688 234.324219 70.984375 234.40625 70.15625 234.40625 C 69.328125 234.40625 68.511719 234.324219 67.699219 234.164062 C 66.886719 234 66.097656 233.761719 65.332031 233.445312 C 64.566406 233.128906 63.839844 232.738281 63.152344 232.28125 C 62.464844 231.820312 61.828125 231.296875 61.242188 230.710938 C 60.65625 230.125 60.132812 229.488281 59.675781 228.800781 C 59.214844 228.113281 58.828125 227.386719 58.507812 226.621094 C 58.191406 225.855469 57.953125 225.070312 57.792969 224.257812 C 57.628906 223.445312 57.550781 222.625 57.550781 221.796875 C 57.550781 220.96875 57.628906 220.148438 57.792969 219.335938 C 57.953125 218.527344 58.191406 217.738281 58.507812 216.972656 C 58.828125 216.207031 59.214844 215.480469 59.675781 214.792969 C 60.132812 214.105469 60.65625 213.46875 61.242188 212.882812 C 61.828125 212.296875 62.464844 211.773438 63.152344 211.3125 C 63.839844 210.855469 64.566406 210.464844 65.332031 210.148438 C 66.097656 209.832031 66.886719 209.59375 67.699219 209.429688 C 68.511719 209.269531 69.328125 209.1875 70.15625 209.1875 C 70.984375 209.1875 71.804688 209.269531 72.617188 209.429688 C 73.429688 209.59375 74.21875 209.832031 74.984375 210.148438 C 75.746094 210.464844 76.472656 210.855469 77.164062 211.3125 C 77.851562 211.773438 78.488281 212.296875 79.074219 212.882812 C 79.660156 213.46875 80.179688 214.105469 80.640625 214.792969 C 81.101562 215.480469 81.488281 216.207031 81.804688 216.972656 C 82.121094 217.738281 82.363281 218.527344 82.523438 219.335938 C 82.683594 220.148438 82.765625 220.96875 82.765625 221.796875 Z M 82.765625 221.796875 " fill-opacity="1" fill-rule="nonzero"/></g><path fill="#f17950" d="M 263.851562 269.855469 L 252.980469 269.855469 C 244.488281 269.855469 237.609375 276.734375 237.609375 285.222656 L 237.609375 302.722656 C 251.035156 307.617188 265.773438 307.617188 279.199219 302.722656 L 279.199219 285.222656 C 279.21875 276.734375 272.339844 269.855469 263.851562 269.855469 Z M 263.851562 269.855469 " fill-opacity="1" fill-rule="nonzero"/><path fill="#f17950" d="M 271.023438 252.207031 C 271.023438 253.035156 270.941406 253.855469 270.78125 254.667969 C 270.617188 255.480469 270.378906 256.269531 270.0625 257.035156 C 269.746094 257.796875 269.359375 258.523438 268.898438 259.214844 C 268.4375 259.902344 267.914062 260.539062 267.332031 261.125 C 266.746094 261.710938 266.109375 262.230469 265.417969 262.691406 C 264.730469 263.152344 264.003906 263.539062 263.238281 263.855469 C 262.476562 264.171875 261.6875 264.414062 260.875 264.574219 C 260.0625 264.734375 259.242188 264.816406 258.414062 264.816406 C 257.585938 264.816406 256.765625 264.734375 255.957031 264.574219 C 255.144531 264.414062 254.355469 264.171875 253.589844 263.855469 C 252.824219 263.539062 252.097656 263.152344 251.410156 262.691406 C 250.722656 262.230469 250.085938 261.710938 249.5 261.125 C 248.914062 260.539062 248.390625 259.902344 247.933594 259.214844 C 247.472656 258.523438 247.082031 257.796875 246.765625 257.035156 C 246.449219 256.269531 246.210938 255.480469 246.050781 254.667969 C 245.886719 253.855469 245.808594 253.035156 245.808594 252.207031 C 245.808594 251.378906 245.886719 250.5625 246.050781 249.75 C 246.210938 248.9375 246.449219 248.148438 246.765625 247.382812 C 247.082031 246.617188 247.472656 245.890625 247.933594 245.203125 C 248.390625 244.515625 248.914062 243.878906 249.5 243.292969 C 250.085938 242.707031 250.722656 242.1875 251.410156 241.726562 C 252.097656 241.265625 252.824219 240.878906 253.589844 240.558594 C 254.355469 240.242188 255.144531 240.003906 255.957031 239.84375 C 256.765625 239.679688 257.585938 239.601562 258.414062 239.601562 C 259.242188 239.601562 260.0625 239.679688 260.875 239.84375 C 261.6875 240.003906 262.476562 240.242188 263.238281 240.558594 C 264.003906 240.878906 264.730469 241.265625 265.417969 241.726562 C 266.109375 242.1875 266.746094 242.707031 267.332031 243.292969 C 267.914062 243.878906 268.4375 244.515625 268.898438 245.203125 C 269.359375 245.890625 269.746094 246.617188 270.0625 247.382812 C 270.378906 248.148438 270.617188 248.9375 270.78125 249.75 C 270.941406 250.5625 271.023438 251.378906 271.023438 252.207031 Z M 271.023438 252.207031 " fill-opacity="1" fill-rule="nonzero"/><g clip-path="url(#fbfa9257a8)"><path fill="#f17950" d="M 295.320312 259.734375 L 284.445312 259.734375 C 278.464844 259.734375 273.28125 263.164062 270.75 268.160156 C 277.484375 270.902344 282.25 277.507812 282.25 285.203125 L 282.25 295.78125 C 291.785156 296.996094 301.550781 295.929688 310.6875 292.605469 L 310.6875 275.105469 C 310.6875 266.613281 303.808594 259.734375 295.320312 259.734375 Z M 295.320312 259.734375 " fill-opacity="1" fill-rule="nonzero"/></g><g clip-path="url(#89883a00b9)"><path fill="#f17950" d="M 302.492188 242.089844 C 302.492188 242.917969 302.410156 243.738281 302.246094 244.546875 C 302.085938 245.359375 301.847656 246.148438 301.53125 246.914062 C 301.214844 247.679688 300.824219 248.40625 300.367188 249.09375 C 299.90625 249.78125 299.382812 250.417969 298.796875 251.003906 C 298.210938 251.589844 297.574219 252.113281 296.886719 252.570312 C 296.199219 253.03125 295.472656 253.421875 294.707031 253.738281 C 293.941406 254.054688 293.152344 254.292969 292.34375 254.453125 C 291.53125 254.617188 290.710938 254.695312 289.882812 254.695312 C 289.054688 254.695312 288.234375 254.617188 287.421875 254.453125 C 286.609375 254.292969 285.824219 254.054688 285.058594 253.738281 C 284.292969 253.421875 283.566406 253.03125 282.878906 252.570312 C 282.191406 252.113281 281.550781 251.589844 280.96875 251.003906 C 280.382812 250.417969 279.859375 249.78125 279.398438 249.09375 C 278.9375 248.40625 278.550781 247.679688 278.234375 246.914062 C 277.917969 246.148438 277.679688 245.359375 277.515625 244.546875 C 277.355469 243.738281 277.273438 242.917969 277.273438 242.089844 C 277.273438 241.261719 277.355469 240.441406 277.515625 239.628906 C 277.679688 238.816406 277.917969 238.027344 278.234375 237.265625 C 278.550781 236.5 278.9375 235.773438 279.398438 235.085938 C 279.859375 234.394531 280.382812 233.757812 280.96875 233.171875 C 281.550781 232.589844 282.191406 232.066406 282.878906 231.605469 C 283.566406 231.144531 284.292969 230.757812 285.058594 230.441406 C 285.824219 230.125 286.609375 229.886719 287.421875 229.722656 C 288.234375 229.5625 289.054688 229.480469 289.882812 229.480469 C 290.710938 229.480469 291.53125 229.5625 292.34375 229.722656 C 293.152344 229.886719 293.941406 230.125 294.707031 230.441406 C 295.472656 230.757812 296.199219 231.144531 296.886719 231.605469 C 297.574219 232.066406 298.210938 232.589844 298.796875 233.171875 C 299.382812 233.757812 299.90625 234.394531 300.367188 235.085938 C 300.824219 235.773438 301.214844 236.5 301.53125 237.265625 C 301.847656 238.027344 302.085938 238.816406 302.246094 239.628906 C 302.410156 240.441406 302.492188 241.261719 302.492188 242.089844 Z M 302.492188 242.089844 " fill-opacity="1" fill-rule="nonzero"/></g><g clip-path="url(#b90daa15a1)"><path fill="#f17950" d="M 246.078125 268.183594 C 243.550781 263.1875 238.363281 259.757812 232.382812 259.757812 L 221.511719 259.757812 C 213.023438 259.734375 206.144531 266.613281 206.144531 275.105469 L 206.144531 292.605469 C 215.300781 295.949219 225.042969 296.996094 234.578125 295.78125 L 234.578125 285.203125 C 234.578125 277.507812 239.347656 270.902344 246.078125 268.183594 Z M 246.078125 268.183594 " fill-opacity="1" fill-rule="nonzero"/></g><g clip-path="url(#43e3f53018)"><path fill="#f17950" d="M 239.554688 242.089844 C 239.554688 242.917969 239.476562 243.738281 239.3125 244.546875 C 239.152344 245.359375 238.914062 246.148438 238.597656 246.914062 C 238.277344 247.679688 237.890625 248.40625 237.429688 249.09375 C 236.96875 249.78125 236.449219 250.417969 235.863281 251.003906 C 235.277344 251.589844 234.640625 252.113281 233.953125 252.570312 C 233.265625 253.03125 232.539062 253.421875 231.773438 253.738281 C 231.007812 254.054688 230.21875 254.292969 229.40625 254.453125 C 228.59375 254.617188 227.773438 254.695312 226.949219 254.695312 C 226.121094 254.695312 225.300781 254.617188 224.488281 254.453125 C 223.675781 254.292969 222.886719 254.054688 222.121094 253.738281 C 221.359375 253.421875 220.632812 253.03125 219.941406 252.570312 C 219.253906 252.113281 218.617188 251.589844 218.03125 251.003906 C 217.445312 250.417969 216.925781 249.78125 216.464844 249.09375 C 216.003906 248.40625 215.617188 247.679688 215.300781 246.914062 C 214.984375 246.148438 214.742188 245.359375 214.582031 244.546875 C 214.421875 243.738281 214.339844 242.917969 214.339844 242.089844 C 214.339844 241.261719 214.421875 240.441406 214.582031 239.628906 C 214.742188 238.816406 214.984375 238.027344 215.300781 237.265625 C 215.617188 236.5 216.003906 235.773438 216.464844 235.085938 C 216.925781 234.394531 217.445312 233.757812 218.03125 233.171875 C 218.617188 232.589844 219.253906 232.066406 219.941406 231.605469 C 220.632812 231.144531 221.359375 230.757812 222.121094 230.441406 C 222.886719 230.125 223.675781 229.886719 224.488281 229.722656 C 225.300781 229.5625 226.121094 229.480469 226.949219 229.480469 C 227.773438 229.480469 228.59375 229.5625 229.40625 229.722656 C 230.21875 229.886719 231.007812 230.125 231.773438 230.441406 C 232.539062 230.757812 233.265625 231.144531 233.953125 231.605469 C 234.640625 232.066406 235.277344 232.589844 235.863281 233.171875 C 236.449219 233.757812 236.96875 234.394531 237.429688 235.085938 C 237.890625 235.773438 238.277344 236.5 238.597656 237.265625 C 238.914062 238.027344 239.152344 238.816406 239.3125 239.628906 C 239.476562 240.441406 239.554688 241.261719 239.554688 242.089844 Z M 239.554688 242.089844 " fill-opacity="1" fill-rule="nonzero"/></g><path fill="#f17950" d="M 275.96875 130.804688 L 265.097656 130.804688 C 256.609375 130.804688 249.730469 137.683594 249.730469 146.175781 L 249.730469 163.675781 C 263.152344 168.566406 277.894531 168.566406 291.316406 163.675781 L 291.316406 146.175781 C 291.339844 137.683594 284.460938 130.804688 275.96875 130.804688 Z M 275.96875 130.804688 " fill-opacity="1" fill-rule="nonzero"/><path fill="#f17950" d="M 283.140625 113.160156 C 283.140625 113.988281 283.0625 114.808594 282.898438 115.621094 C 282.738281 116.429688 282.5 117.21875 282.183594 117.984375 C 281.867188 118.75 281.476562 119.476562 281.015625 120.164062 C 280.558594 120.851562 280.035156 121.488281 279.449219 122.074219 C 278.863281 122.660156 278.226562 123.183594 277.539062 123.644531 C 276.851562 124.101562 276.125 124.492188 275.359375 124.808594 C 274.59375 125.125 273.804688 125.363281 272.992188 125.523438 C 272.183594 125.6875 271.363281 125.765625 270.535156 125.765625 C 269.707031 125.765625 268.886719 125.6875 268.074219 125.523438 C 267.261719 125.363281 266.472656 125.125 265.710938 124.808594 C 264.945312 124.492188 264.21875 124.101562 263.53125 123.644531 C 262.839844 123.183594 262.203125 122.660156 261.617188 122.074219 C 261.035156 121.488281 260.511719 120.851562 260.050781 120.164062 C 259.589844 119.476562 259.203125 118.75 258.886719 117.984375 C 258.570312 117.21875 258.328125 116.429688 258.167969 115.621094 C 258.007812 114.808594 257.925781 113.988281 257.925781 113.160156 C 257.925781 112.332031 258.007812 111.511719 258.167969 110.699219 C 258.328125 109.886719 258.570312 109.101562 258.886719 108.335938 C 259.203125 107.570312 259.589844 106.84375 260.050781 106.15625 C 260.511719 105.464844 261.035156 104.828125 261.617188 104.246094 C 262.203125 103.660156 262.839844 103.136719 263.53125 102.675781 C 264.21875 102.214844 264.945312 101.828125 265.710938 101.511719 C 266.472656 101.195312 267.261719 100.957031 268.074219 100.792969 C 268.886719 100.632812 269.707031 100.550781 270.535156 100.550781 C 271.363281 100.550781 272.183594 100.632812 272.992188 100.792969 C 273.804688 100.957031 274.59375 101.195312 275.359375 101.511719 C 276.125 101.828125 276.851562 102.214844 277.539062 102.675781 C 278.226562 103.136719 278.863281 103.660156 279.449219 104.246094 C 280.035156 104.828125 280.558594 105.464844 281.015625 106.15625 C 281.476562 106.84375 281.867188 107.570312 282.183594 108.335938 C 282.5 109.101562 282.738281 109.886719 282.898438 110.699219 C 283.0625 111.511719 283.140625 112.332031 283.140625 113.160156 Z M 283.140625 113.160156 " fill-opacity="1" fill-rule="nonzero"/><g clip-path="url(#3d040a0c19)"><path fill="#f17950" d="M 307.4375 120.6875 L 296.566406 120.6875 C 290.585938 120.6875 285.398438 124.117188 282.871094 129.113281 C 289.601562 131.851562 294.371094 138.460938 294.371094 146.152344 L 294.371094 156.734375 C 303.902344 157.945312 313.667969 156.878906 322.804688 153.554688 L 322.804688 136.054688 C 322.804688 127.566406 315.925781 120.6875 307.4375 120.6875 Z M 307.4375 120.6875 " fill-opacity="1" fill-rule="nonzero"/></g><g clip-path="url(#a8b1dbea60)"><path fill="#f17950" d="M 314.609375 103.039062 C 314.609375 103.867188 314.527344 104.6875 314.367188 105.5 C 314.207031 106.3125 313.964844 107.101562 313.648438 107.863281 C 313.332031 108.628906 312.945312 109.355469 312.484375 110.042969 C 312.023438 110.734375 311.5 111.371094 310.917969 111.953125 C 310.332031 112.539062 309.695312 113.0625 309.007812 113.523438 C 308.316406 113.984375 307.589844 114.371094 306.828125 114.6875 C 306.0625 115.003906 305.273438 115.242188 304.460938 115.40625 C 303.648438 115.566406 302.828125 115.648438 302 115.648438 C 301.171875 115.648438 300.355469 115.566406 299.542969 115.40625 C 298.730469 115.242188 297.941406 115.003906 297.175781 114.6875 C 296.410156 114.371094 295.683594 113.984375 294.996094 113.523438 C 294.308594 113.0625 293.671875 112.539062 293.085938 111.953125 C 292.5 111.371094 291.976562 110.734375 291.519531 110.042969 C 291.058594 109.355469 290.671875 108.628906 290.351562 107.863281 C 290.035156 107.101562 289.796875 106.3125 289.636719 105.5 C 289.472656 104.6875 289.394531 103.867188 289.394531 103.039062 C 289.394531 102.210938 289.472656 101.390625 289.636719 100.582031 C 289.796875 99.769531 290.035156 98.980469 290.351562 98.214844 C 290.671875 97.449219 291.058594 96.722656 291.519531 96.035156 C 291.976562 95.347656 292.5 94.710938 293.085938 94.125 C 293.671875 93.539062 294.308594 93.015625 294.996094 92.558594 C 295.683594 92.097656 296.410156 91.707031 297.175781 91.390625 C 297.941406 91.074219 298.730469 90.835938 299.542969 90.675781 C 300.355469 90.511719 301.171875 90.433594 302 90.433594 C 302.828125 90.433594 303.648438 90.511719 304.460938 90.675781 C 305.273438 90.835938 306.0625 91.074219 306.828125 91.390625 C 307.589844 91.707031 308.316406 92.097656 309.007812 92.558594 C 309.695312 93.015625 310.332031 93.539062 310.917969 94.125 C 311.5 94.710938 312.023438 95.347656 312.484375 96.035156 C 312.945312 96.722656 313.332031 97.449219 313.648438 98.214844 C 313.964844 98.980469 314.207031 99.769531 314.367188 100.582031 C 314.527344 101.390625 314.609375 102.210938 314.609375 103.039062 Z M 314.609375 103.039062 " fill-opacity="1" fill-rule="nonzero"/></g><g clip-path="url(#91c023c69a)"><path fill="#f17950" d="M 258.199219 129.132812 C 255.667969 124.136719 250.484375 120.707031 244.503906 120.707031 L 233.628906 120.707031 C 225.140625 120.6875 218.261719 127.566406 218.261719 136.054688 L 218.261719 153.554688 C 227.421875 156.902344 237.164062 157.945312 246.699219 156.734375 L 246.699219 146.152344 C 246.699219 138.460938 251.464844 131.851562 258.199219 129.132812 Z M 258.199219 129.132812 " fill-opacity="1" fill-rule="nonzero"/></g><g clip-path="url(#ce5a0dcb63)"><path fill="#f17950" d="M 251.675781 103.039062 C 251.675781 103.867188 251.59375 104.6875 251.433594 105.5 C 251.269531 106.3125 251.03125 107.101562 250.714844 107.863281 C 250.398438 108.628906 250.007812 109.355469 249.550781 110.042969 C 249.089844 110.734375 248.566406 111.371094 247.980469 111.953125 C 247.394531 112.539062 246.757812 113.0625 246.070312 113.523438 C 245.382812 113.984375 244.65625 114.371094 243.890625 114.6875 C 243.125 115.003906 242.339844 115.242188 241.527344 115.40625 C 240.714844 115.566406 239.894531 115.648438 239.066406 115.648438 C 238.238281 115.648438 237.417969 115.566406 236.605469 115.40625 C 235.792969 115.242188 235.007812 115.003906 234.242188 114.6875 C 233.476562 114.371094 232.75 113.984375 232.0625 113.523438 C 231.375 113.0625 230.738281 112.539062 230.152344 111.953125 C 229.566406 111.371094 229.042969 110.734375 228.582031 110.042969 C 228.125 109.355469 227.734375 108.628906 227.417969 107.863281 C 227.101562 107.101562 226.863281 106.3125 226.699219 105.5 C 226.539062 104.6875 226.457031 103.867188 226.457031 103.039062 C 226.457031 102.210938 226.539062 101.390625 226.699219 100.582031 C 226.863281 99.769531 227.101562 98.980469 227.417969 98.214844 C 227.734375 97.449219 228.125 96.722656 228.582031 96.035156 C 229.042969 95.347656 229.566406 94.710938 230.152344 94.125 C 230.738281 93.539062 231.375 93.015625 232.0625 92.558594 C 232.75 92.097656 233.476562 91.707031 234.242188 91.390625 C 235.007812 91.074219 235.792969 90.835938 236.605469 90.675781 C 237.417969 90.511719 238.238281 90.433594 239.066406 90.433594 C 239.894531 90.433594 240.714844 90.511719 241.527344 90.675781 C 242.339844 90.835938 243.125 91.074219 243.890625 91.390625 C 244.65625 91.707031 245.382812 92.097656 246.070312 92.558594 C 246.757812 93.015625 247.394531 93.539062 247.980469 94.125 C 248.566406 94.710938 249.089844 95.347656 249.550781 96.035156 C 250.007812 96.722656 250.398438 97.449219 250.714844 98.214844 C 251.03125 98.980469 251.269531 99.769531 251.433594 100.582031 C 251.59375 101.390625 251.675781 102.210938 251.675781 103.039062 Z M 251.675781 103.039062 " fill-opacity="1" fill-rule="nonzero"/></g></svg>