<svg xmlns="http://www.w3.org/2000/svg" xmlns:xlink="http://www.w3.org/1999/xlink" width="500" zoomAndPan="magnify" viewBox="0 0 375 374.999991" height="500" preserveAspectRatio="xMidYMid meet" version="1.0"><defs><clipPath id="5f035711c0"><path d="M 187.5 0 C 83.945312 0 0 83.945312 0 187.5 C 0 291.054688 83.945312 375 187.5 375 C 291.054688 375 375 291.054688 375 187.5 C 375 83.945312 291.054688 0 187.5 0 Z M 187.5 0 " clip-rule="nonzero"/></clipPath><clipPath id="73b6e1e4ae"><path d="M 51 39 L 320 39 L 320 283 L 51 283 Z M 51 39 " clip-rule="nonzero"/></clipPath><clipPath id="fb738ef0de"><path d="M 49.675781 38.171875 L 319.601562 31.808594 L 325.433594 279.238281 L 55.511719 285.605469 Z M 49.675781 38.171875 " clip-rule="nonzero"/></clipPath><clipPath id="93ceb2e9b7"><path d="M 49.675781 38.171875 L 319.601562 31.808594 L 325.433594 279.238281 L 55.511719 285.605469 Z M 49.675781 38.171875 " clip-rule="nonzero"/></clipPath><clipPath id="a30bd74968"><path d="M 171 57 L 320 57 L 320 246 L 171 246 Z M 171 57 " clip-rule="nonzero"/></clipPath><clipPath id="bb35c30dc7"><path d="M 49.675781 38.171875 L 319.601562 31.808594 L 325.433594 279.238281 L 55.511719 285.605469 Z M 49.675781 38.171875 " clip-rule="nonzero"/></clipPath><clipPath id="3338725c2e"><path d="M 49.675781 38.171875 L 319.601562 31.808594 L 325.433594 279.238281 L 55.511719 285.605469 Z M 49.675781 38.171875 " clip-rule="nonzero"/></clipPath><clipPath id="4e72f3a55f"><path d="M 54 58 L 159 58 L 159 233 L 54 233 Z M 54 58 " clip-rule="nonzero"/></clipPath><clipPath id="f84a50b2c7"><path d="M 49.675781 38.171875 L 319.601562 31.808594 L 325.433594 279.238281 L 55.511719 285.605469 Z M 49.675781 38.171875 " clip-rule="nonzero"/></clipPath><clipPath id="cb895dd5f9"><path d="M 49.675781 38.171875 L 319.601562 31.808594 L 325.433594 279.238281 L 55.511719 285.605469 Z M 49.675781 38.171875 " clip-rule="nonzero"/></clipPath><clipPath id="ef37a3d654"><path d="M 115 40 L 174 40 L 174 82 L 115 82 Z M 115 40 " clip-rule="nonzero"/></clipPath><clipPath id="ccf14c0936"><path d="M 49.675781 38.171875 L 319.601562 31.808594 L 325.433594 279.238281 L 55.511719 285.605469 Z M 49.675781 38.171875 " clip-rule="nonzero"/></clipPath><clipPath id="362cae8d99"><path d="M 49.675781 38.171875 L 319.601562 31.808594 L 325.433594 279.238281 L 55.511719 285.605469 Z M 49.675781 38.171875 " clip-rule="nonzero"/></clipPath><clipPath id="baab75216e"><path d="M 104 48 L 136 48 L 136 76 L 104 76 Z M 104 48 " clip-rule="nonzero"/></clipPath><clipPath id="0a58539efc"><path d="M 49.675781 38.171875 L 319.601562 31.808594 L 325.433594 279.238281 L 55.511719 285.605469 Z M 49.675781 38.171875 " clip-rule="nonzero"/></clipPath><clipPath id="0b44d05787"><path d="M 49.675781 38.171875 L 319.601562 31.808594 L 325.433594 279.238281 L 55.511719 285.605469 Z M 49.675781 38.171875 " clip-rule="nonzero"/></clipPath><clipPath id="5174b4ca21"><path d="M 141 40 L 320 40 L 320 283 L 141 283 Z M 141 40 " clip-rule="nonzero"/></clipPath><clipPath id="cb091c7c20"><path d="M 49.675781 38.171875 L 319.601562 31.808594 L 325.433594 279.238281 L 55.511719 285.605469 Z M 49.675781 38.171875 " clip-rule="nonzero"/></clipPath><clipPath id="46186bbebb"><path d="M 49.675781 38.171875 L 319.601562 31.808594 L 325.433594 279.238281 L 55.511719 285.605469 Z M 49.675781 38.171875 " clip-rule="nonzero"/></clipPath><clipPath id="d5bd75dd1c"><path d="M 206.269531 172.421875 L 346.347656 172.421875 L 346.347656 350.65625 L 206.269531 350.65625 Z M 206.269531 172.421875 " clip-rule="nonzero"/></clipPath><clipPath id="3eee5f279a"><path d="M 28.675781 172.421875 L 168.394531 172.421875 L 168.394531 350.65625 L 28.675781 350.65625 Z M 28.675781 172.421875 " clip-rule="nonzero"/></clipPath></defs><g clip-path="url(#5f035711c0)"><rect x="-37.5" width="450" fill="#f17950" y="-37.499999" height="449.999989" fill-opacity="1"/></g><g clip-path="url(#73b6e1e4ae)"><g clip-path="url(#fb738ef0de)"><g clip-path="url(#93ceb2e9b7)"><path fill="#f4f6fc" d="M 187.4375 77.898438 L 189.492188 74.542969 C 198.425781 56.867188 213.207031 45.667969 233.84375 40.949219 C 257.207031 36.511719 276.914062 40.21875 292.960938 52.074219 C 298.585938 55.886719 304.328125 62.808594 310.1875 72.847656 C 315.328125 82.367188 318.378906 93.28125 319.335938 105.597656 C 321.003906 124.277344 315.792969 144.191406 303.703125 165.34375 C 298.738281 175.679688 284.226562 193.28125 260.164062 218.140625 C 237.960938 239.546875 213.8125 261.066406 187.722656 282.703125 C 121.128906 227.039062 84.121094 192.90625 76.695312 180.300781 C 60.5 161.679688 52.171875 140.058594 51.710938 115.445312 C 52.320312 96.695312 57.03125 80.617188 65.847656 67.203125 C 69.355469 61.964844 73.523438 57.414062 78.355469 53.554688 C 85.082031 48.464844 91.921875 45.007812 98.875 43.179688 C 117.394531 38.628906 133.660156 39.453125 147.671875 45.65625 C 160.40625 51.417969 173.660156 62.164062 187.4375 77.898438 " fill-opacity="1" fill-rule="nonzero"/></g></g></g><g clip-path="url(#a30bd74968)"><g clip-path="url(#bb35c30dc7)"><g clip-path="url(#3338725c2e)"><path fill="#f17950" d="M 241.695312 57.679688 C 241.316406 57.6875 240.953125 57.722656 240.613281 57.789062 C 237.429688 58.421875 236.300781 61.867188 232.328125 63.652344 C 228.355469 65.441406 221.542969 65.574219 219.503906 67.71875 C 217.464844 69.859375 220.203125 74.011719 217.238281 76.40625 C 214.273438 78.800781 205.605469 79.441406 202.878906 81.878906 C 200.234375 84.246094 203.167969 88.296875 208.085938 88.628906 C 208.242188 88.640625 208.398438 88.648438 208.558594 88.648438 C 208.675781 88.652344 208.789062 88.652344 208.90625 88.648438 C 213.367188 88.578125 219.15625 85.691406 222.773438 85.632812 C 222.949219 85.628906 223.121094 85.632812 223.285156 85.644531 C 223.65625 85.671875 224 85.730469 224.308594 85.839844 C 227.675781 86.992188 227.222656 93.351562 224.523438 95.765625 C 223.453125 96.722656 222.027344 97.058594 220.449219 97.082031 C 220.050781 97.089844 219.640625 97.078125 219.226562 97.050781 C 217.132812 96.90625 214.863281 96.390625 212.816406 96.136719 C 212.3125 96.070312 211.824219 96.023438 211.347656 95.992188 C 210.734375 95.949219 210.148438 95.933594 209.585938 95.945312 C 207.082031 95.984375 205.132812 96.523438 204.003906 97.484375 C 202.429688 98.828125 202.453125 101 199.699219 102.777344 C 196.945312 104.554688 191.414062 105.9375 190.675781 108.230469 C 189.941406 110.519531 194.003906 113.71875 193.140625 114.910156 C 192.277344 116.105469 186.488281 115.296875 183.144531 117.625 C 179.960938 119.84375 178.996094 124.910156 182.949219 125.175781 C 183.085938 125.1875 183.226562 125.1875 183.371094 125.1875 C 183.441406 125.1875 183.507812 125.183594 183.578125 125.179688 C 188.253906 124.933594 198.496094 118.980469 205.277344 118.5625 C 205.472656 118.550781 205.660156 118.542969 205.847656 118.539062 C 206.1875 118.535156 206.515625 118.542969 206.835938 118.5625 C 212.613281 118.953125 215.945312 123.585938 222.503906 127.269531 C 229.625 131.273438 240.550781 134.160156 238.1875 135.894531 C 237.027344 136.75 232.652344 137.324219 227.667969 137.40625 C 225.710938 137.4375 223.65625 137.394531 221.667969 137.257812 C 218.417969 137.039062 215.335938 136.582031 213.109375 135.828125 C 206.046875 133.4375 207.578125 128.070312 203.417969 127.019531 C 203.0625 126.929688 202.664062 126.871094 202.230469 126.839844 C 201.953125 126.824219 201.65625 126.816406 201.347656 126.820312 C 196.554688 126.898438 188.515625 129.789062 183.0625 133.214844 C 176.714844 137.199219 173.867188 141.914062 172.570312 150.027344 C 171.273438 158.140625 171.519531 169.65625 177.238281 175.351562 C 182.953125 181.046875 194.140625 180.925781 199.589844 182.613281 C 205.039062 184.296875 204.75 187.789062 204.253906 193.761719 C 203.757812 199.734375 203.054688 208.1875 203.941406 212.707031 C 204.832031 217.226562 207.308594 217.8125 208.863281 224.058594 C 210.417969 230.304688 211.046875 242.210938 215.214844 245.070312 C 215.847656 245.503906 216.566406 245.730469 217.332031 245.78125 C 217.476562 245.789062 217.625 245.792969 217.773438 245.792969 C 222.015625 245.722656 227.621094 240.796875 230.03125 236.53125 C 232.972656 231.320312 231.144531 227.09375 233.023438 223.925781 C 234.902344 220.757812 240.484375 218.648438 241.40625 214.707031 C 242.324219 210.765625 238.582031 204.988281 242.34375 197.871094 C 246.101562 190.753906 257.367188 182.296875 258.246094 178.558594 C 259.128906 174.824219 249.621094 175.804688 244.800781 171.925781 C 239.976562 168.046875 239.835938 159.300781 241.304688 158.402344 C 241.390625 158.351562 241.484375 158.324219 241.578125 158.324219 C 241.59375 158.320312 241.613281 158.324219 241.628906 158.324219 C 243.199219 158.429688 246.125 164.648438 249.851562 167.382812 C 251.351562 168.480469 252.980469 169.015625 254.613281 169.125 C 254.882812 169.144531 255.148438 169.148438 255.417969 169.144531 C 257.859375 169.105469 260.253906 168.164062 262.167969 166.789062 C 265.574219 164.351562 267.460938 160.5625 266.332031 157.582031 C 265.203125 154.605469 261.058594 152.445312 256.910156 150.28125 C 256.675781 146.445312 256.445312 142.613281 256.945312 142.605469 C 256.949219 142.605469 256.953125 142.605469 256.953125 142.605469 C 256.972656 142.605469 256.992188 142.613281 257.015625 142.625 C 257.605469 142.964844 259.027344 147.640625 263.035156 149.6875 C 267.042969 151.734375 273.636719 151.152344 277.757812 152.582031 C 281.882812 154.011719 283.539062 157.457031 284.136719 162.105469 C 284.730469 166.75 284.265625 172.601562 285.828125 175.480469 C 287.386719 178.359375 290.972656 178.269531 293.167969 180.226562 C 293.320312 180.363281 293.464844 180.511719 293.605469 180.664062 C 294.609375 179.371094 295.546875 178.125 296.425781 176.925781 L 296.429688 176.925781 C 295.25 174.136719 293.335938 172.160156 295.441406 168.945312 C 297.3125 166.09375 302.351562 162.269531 306.167969 160.871094 C 316.496094 141.378906 320.886719 122.953125 319.335938 105.597656 C 318.378906 93.28125 315.328125 82.367188 310.1875 72.847656 C 308.101562 69.273438 306.03125 66.097656 303.976562 63.3125 L 303.972656 63.3125 C 298.039062 64.753906 289.894531 64.847656 285.472656 65.167969 C 281.003906 65.492188 280.347656 66.046875 276.910156 66.308594 C 273.476562 66.570312 267.265625 66.539062 262.414062 69.015625 C 257.558594 71.492188 254.066406 76.472656 249.710938 78.09375 C 248.535156 78.535156 247.292969 78.726562 246.097656 78.746094 C 245.738281 78.753906 245.386719 78.742188 245.039062 78.71875 C 242.253906 78.53125 239.914062 77.46875 239.511719 76.515625 C 238.886719 75.046875 242.855469 73.84375 246.082031 71.386719 C 249.308594 68.933594 251.785156 65.222656 250.410156 62.277344 C 249.261719 59.828125 245.4375 57.90625 242.355469 57.699219 C 242.128906 57.683594 241.910156 57.679688 241.695312 57.679688 Z M 241.695312 57.679688 " fill-opacity="1" fill-rule="nonzero"/></g></g></g><g clip-path="url(#4e72f3a55f)"><g clip-path="url(#f84a50b2c7)"><g clip-path="url(#cb895dd5f9)"><path fill="#f17950" d="M 93.300781 58.203125 C 93.171875 58.207031 93.039062 58.222656 92.90625 58.25 C 91.179688 58.617188 89.171875 61.277344 86.609375 61.460938 C 86.535156 61.464844 86.460938 61.46875 86.382812 61.472656 C 86.253906 61.472656 86.125 61.46875 85.996094 61.460938 C 83.566406 61.296875 80.796875 59.335938 79.171875 59.179688 C 79.148438 59.179688 79.125 59.175781 79.105469 59.175781 C 79.042969 59.171875 78.984375 59.167969 78.925781 59.171875 C 77.363281 59.195312 76.910156 61 75.292969 61.632812 C 74.808594 61.824219 74.222656 61.910156 73.5625 61.917969 C 73.273438 61.925781 72.972656 61.914062 72.660156 61.894531 C 71.929688 61.84375 71.136719 61.730469 70.308594 61.585938 C 70.28125 61.621094 70.25 61.65625 70.222656 61.691406 C 68.824219 63.355469 67.367188 65.191406 65.847656 67.203125 C 60.46875 75.382812 56.621094 84.558594 54.296875 94.722656 C 55.273438 95.59375 56.046875 97.007812 56.308594 99.808594 C 56.742188 104.421875 55.789062 112.789062 57.050781 117.359375 C 58.316406 121.929688 61.792969 122.699219 63.207031 124.171875 C 64.625 125.648438 63.976562 127.828125 63.988281 129.445312 C 63.996094 131.066406 64.664062 132.121094 65.328125 133.171875 C 65.988281 134.398438 66.644531 135.621094 67.789062 136.375 C 68.40625 136.78125 69.164062 137.050781 69.796875 137.09375 C 69.871094 137.097656 69.941406 137.097656 70.007812 137.097656 C 70.457031 137.089844 70.820312 136.953125 70.988281 136.648438 C 71.414062 135.882812 70.636719 134.070312 69.605469 132.519531 C 68.574219 130.96875 67.289062 129.679688 66.714844 127.59375 C 66.179688 125.652344 66.261719 123.019531 67.207031 123.003906 C 67.222656 123.003906 67.234375 123.003906 67.25 123.003906 C 67.308594 123.007812 67.367188 123.019531 67.429688 123.042969 C 68.578125 123.457031 70.75 127.160156 71.664062 129.621094 C 72.578125 132.085938 72.238281 133.308594 73.222656 135.152344 C 74.203125 137 76.511719 139.46875 76.707031 140.9375 C 76.90625 142.40625 74.992188 142.871094 75.617188 143.929688 C 76.238281 144.984375 79.398438 146.632812 81.296875 147.625 C 83.191406 148.617188 83.820312 148.957031 84.453125 149.296875 C 86.480469 151.335938 88.511719 153.375 90.921875 153.953125 C 91.355469 154.058594 91.804688 154.113281 92.25 154.144531 C 93.390625 154.222656 94.527344 154.121094 95.433594 154.179688 C 96.136719 154.230469 96.703125 154.375 97.019531 154.777344 C 97.90625 155.902344 96.882812 159.027344 98.578125 160.320312 C 100.269531 161.613281 104.683594 161.070312 106.492188 162.296875 C 108.300781 163.519531 107.503906 166.511719 106.28125 169.832031 C 105.0625 173.152344 103.414062 176.808594 103.355469 179.695312 C 103.296875 182.582031 104.828125 184.699219 105.648438 187.664062 C 106.46875 190.628906 106.582031 194.445312 108.667969 196.804688 C 110.753906 199.167969 114.804688 200.078125 115.617188 203.9375 C 116.324219 207.308594 114.5625 212.925781 113.011719 218.101562 C 117.902344 222.574219 123.273438 227.394531 129.117188 232.5625 C 129.511719 232.132812 129.847656 231.601562 130.046875 230.851562 C 130.40625 229.488281 130.324219 227.398438 131.039062 226.824219 C 131.253906 226.652344 131.546875 226.621094 131.886719 226.613281 C 132.054688 226.609375 132.234375 226.613281 132.425781 226.613281 C 133.113281 226.601562 133.921875 226.496094 134.71875 225.648438 C 136.175781 224.089844 137.578125 220.027344 138.980469 215.964844 C 141.152344 213.167969 143.328125 210.367188 145.445312 209.679688 C 145.890625 209.53125 146.335938 209.480469 146.769531 209.472656 C 147.027344 209.46875 147.28125 209.480469 147.53125 209.496094 C 147.796875 209.515625 148.054688 209.539062 148.304688 209.554688 C 148.511719 209.570312 148.714844 209.578125 148.910156 209.578125 C 149.628906 209.566406 150.246094 209.382812 150.691406 208.65625 C 151.769531 206.902344 151.871094 201.976562 153.144531 198.152344 C 154.417969 194.324219 156.863281 191.597656 157.71875 189.554688 C 158.574219 187.511719 157.839844 186.15625 157.101562 184.800781 C 155.851562 182.757812 154.605469 180.71875 152.40625 180.21875 C 152.101562 180.148438 151.777344 180.109375 151.4375 180.085938 C 150.535156 180.027344 149.535156 180.085938 148.539062 180.019531 C 147.242188 179.933594 145.953125 179.628906 144.894531 178.550781 C 142.71875 176.34375 141.511719 170.882812 139.457031 168.441406 C 137.402344 166.003906 134.5 166.582031 132.582031 165.753906 C 130.664062 164.925781 129.734375 162.691406 128.1875 161.160156 C 126.96875 159.953125 125.367188 159.183594 123.882812 159.082031 C 123.75 159.074219 123.617188 159.070312 123.484375 159.070312 C 123.222656 159.078125 122.96875 159.101562 122.722656 159.152344 C 121.382812 159.417969 120.277344 160.367188 119.332031 160.382812 C 119.292969 160.382812 119.253906 160.382812 119.21875 160.382812 C 118.960938 160.363281 118.710938 160.269531 118.476562 160.066406 C 117.351562 159.089844 116.460938 155.609375 115.355469 155.34375 C 115.324219 155.335938 115.289062 155.328125 115.253906 155.328125 C 115.238281 155.324219 115.21875 155.324219 115.203125 155.324219 C 114.128906 155.34375 112.820312 158.082031 110.460938 159.207031 C 109.640625 159.601562 108.691406 159.796875 107.746094 159.8125 C 107.539062 159.816406 107.332031 159.808594 107.128906 159.796875 C 105.449219 159.683594 103.867188 158.996094 103.140625 157.808594 C 101.914062 155.816406 103.089844 152.421875 102.070312 151.007812 C 101.050781 149.589844 97.839844 150.152344 97.226562 148.804688 C 96.609375 147.453125 98.589844 144.191406 98.417969 142.433594 C 98.324219 141.4375 97.53125 140.925781 96.59375 140.859375 C 96.507812 140.855469 96.425781 140.851562 96.339844 140.855469 C 95.691406 140.867188 94.992188 141.078125 94.417969 141.484375 C 92.945312 142.515625 92.246094 144.796875 90.53125 144.824219 C 90.484375 144.824219 90.441406 144.824219 90.398438 144.820312 C 90.386719 144.820312 90.371094 144.820312 90.359375 144.820312 C 88.542969 144.695312 85.644531 142.160156 85.246094 139.382812 C 84.847656 136.589844 86.984375 133.546875 89.121094 130.507812 C 89.980469 129.796875 90.839844 129.085938 91.816406 129.070312 C 91.84375 129.070312 91.871094 129.070312 91.902344 129.070312 C 91.929688 129.070312 91.960938 129.074219 91.992188 129.074219 C 92.882812 129.136719 93.886719 129.734375 95.4375 129.839844 C 95.609375 129.851562 95.792969 129.855469 95.980469 129.855469 C 95.992188 129.851562 96.003906 129.851562 96.015625 129.851562 C 96.984375 129.835938 98.144531 129.625 99.21875 129.609375 C 99.421875 129.605469 99.621094 129.609375 99.8125 129.621094 C 100.632812 129.675781 101.367188 129.902344 101.871094 130.492188 C 103.128906 131.976562 102.945312 135.769531 103.535156 137.082031 C 103.703125 137.460938 103.9375 137.632812 104.203125 137.652344 C 104.222656 137.652344 104.242188 137.652344 104.261719 137.652344 C 104.902344 137.640625 105.695312 136.773438 106.152344 135.761719 C 106.820312 134.304688 106.789062 132.550781 106.757812 130.800781 C 105.875 129.035156 104.992188 127.265625 106.390625 125.898438 C 107.789062 124.53125 111.46875 123.566406 112.863281 121.328125 C 114.261719 119.089844 113.378906 115.582031 114.476562 114.195312 C 115.578125 112.804688 118.664062 113.535156 120.507812 112.40625 C 122.355469 111.28125 122.964844 108.300781 123.921875 107.335938 C 124.183594 107.070312 124.46875 106.957031 124.773438 106.953125 C 124.8125 106.953125 124.847656 106.953125 124.886719 106.957031 C 125.675781 107.007812 126.582031 107.738281 127.492188 108.46875 C 129.195312 105.429688 130.898438 102.390625 133.417969 102.261719 C 133.457031 102.257812 133.492188 102.257812 133.53125 102.257812 C 133.632812 102.257812 133.734375 102.257812 133.839844 102.265625 C 136.261719 102.429688 139.273438 104.855469 140.835938 104.960938 C 140.855469 104.960938 140.875 104.960938 140.898438 104.960938 C 140.917969 104.960938 140.9375 104.964844 140.960938 104.960938 C 142.527344 104.9375 142.4375 102.289062 141.078125 100.679688 C 139.703125 99.050781 137.015625 98.484375 136.957031 97.621094 C 136.894531 96.757812 139.457031 95.597656 138.851562 93.617188 C 138.242188 91.636719 134.460938 88.835938 130.683594 86.035156 C 130.367188 83.527344 130.050781 81.019531 129.113281 79.207031 C 128.308594 77.644531 127.042969 76.597656 126.28125 76.546875 C 126.257812 76.542969 126.234375 76.542969 126.210938 76.542969 C 126.113281 76.542969 126.027344 76.5625 125.953125 76.601562 C 125.289062 76.933594 125.519531 78.722656 125.433594 80.167969 C 125.367188 81.207031 125.136719 82.070312 124.625 82.078125 C 124.613281 82.078125 124.597656 82.078125 124.585938 82.078125 C 124.394531 82.066406 124.167969 81.9375 123.894531 81.664062 C 122.859375 80.613281 121.199219 77.414062 119.308594 75.664062 C 118.335938 74.765625 117.300781 74.25 116.304688 74.183594 C 116.214844 74.175781 116.121094 74.175781 116.03125 74.175781 C 115.191406 74.1875 114.382812 74.53125 113.671875 75.246094 C 112.050781 76.875 110.921875 80.433594 111.539062 82.234375 C 112.160156 84.035156 114.523438 84.078125 114.125 86.414062 C 113.726562 88.75 110.566406 93.382812 109.0625 93.824219 C 108.984375 93.847656 108.910156 93.859375 108.839844 93.859375 C 108.820312 93.859375 108.800781 93.859375 108.78125 93.859375 C 107.570312 93.777344 107.625 90.367188 106.476562 88.222656 C 105.246094 85.921875 102.636719 85.070312 100.027344 84.21875 C 97.832031 83.195312 95.632812 82.171875 94.472656 80.523438 C 93.308594 78.871094 93.179688 76.589844 94.277344 75.113281 C 95.375 73.640625 97.699219 72.96875 99.378906 71.539062 C 101.054688 70.109375 102.082031 67.921875 103.109375 65.734375 C 103.667969 66.429688 104.226562 67.125 105.03125 67.179688 C 105.074219 67.179688 105.113281 67.183594 105.15625 67.183594 C 105.53125 67.175781 105.960938 67.03125 106.464844 66.691406 C 108.140625 65.558594 110.652344 62.246094 109.300781 61.058594 C 108.941406 60.742188 108.308594 60.574219 107.476562 60.519531 C 107.191406 60.5 106.875 60.492188 106.542969 60.5 C 104.21875 60.539062 100.871094 61.136719 97.523438 61.738281 C 96.238281 60.023438 94.953125 58.308594 93.46875 58.207031 C 93.414062 58.203125 93.355469 58.203125 93.300781 58.203125 Z M 93.300781 58.203125 " fill-opacity="1" fill-rule="nonzero"/></g></g></g><g clip-path="url(#ef37a3d654)"><g clip-path="url(#ccf14c0936)"><g clip-path="url(#362cae8d99)"><path fill="#f17950" d="M 118.152344 40.199219 C 117.148438 40.21875 116.144531 40.253906 115.144531 40.3125 C 114.953125 42.601562 116.609375 46.054688 118.113281 47.195312 C 118.507812 47.496094 118.890625 47.632812 119.277344 47.660156 C 119.332031 47.664062 119.390625 47.664062 119.445312 47.664062 C 120.726562 47.644531 122.027344 46.445312 123.753906 45.808594 C 124.484375 45.539062 125.289062 45.371094 126.15625 45.359375 C 126.355469 45.355469 126.558594 45.359375 126.761719 45.375 C 128.5 45.492188 130.4375 46.238281 132.433594 48.011719 C 135.695312 50.902344 139.121094 56.515625 140.671875 59.554688 C 142.222656 62.59375 141.898438 63.054688 140.304688 64.25 C 138.714844 65.449219 135.851562 67.378906 136.996094 71.417969 C 138.089844 75.28125 142.855469 81.074219 146.285156 81.304688 C 146.371094 81.3125 146.457031 81.3125 146.542969 81.3125 C 146.609375 81.3125 146.671875 81.308594 146.738281 81.300781 C 150.1875 81.007812 151.9375 74.277344 154.417969 70.886719 C 156.898438 67.492188 160.109375 67.441406 163.570312 66.859375 C 167.03125 66.277344 170.746094 65.164062 172.296875 63.882812 C 172.621094 63.617188 172.847656 63.347656 173.015625 63.074219 C 164.351562 55.1875 155.902344 49.382812 147.671875 45.65625 C 137.683594 41.863281 127.84375 40.042969 118.152344 40.199219 Z M 118.152344 40.199219 " fill-opacity="1" fill-rule="nonzero"/></g></g></g><g clip-path="url(#baab75216e)"><g clip-path="url(#0a58539efc)"><g clip-path="url(#0b44d05787)"><path fill="#f17950" d="M 106.027344 50.9375 L 106.148438 50.636719 C 106.761719 48.976562 107.472656 48.273438 108.285156 48.523438 C 108.488281 48.515625 108.933594 48.757812 109.613281 49.25 C 109.746094 49.304688 110.867188 50.316406 112.976562 52.289062 C 113.683594 52.859375 114.105469 53.152344 114.246094 53.164062 C 114.597656 53.304688 114.902344 53.316406 115.164062 53.203125 L 116.34375 52.441406 C 116.652344 52.308594 116.882812 52.257812 117.035156 52.277344 C 117.21875 52.277344 117.457031 52.328125 117.746094 52.4375 C 117.851562 52.4375 118.332031 52.707031 119.1875 53.253906 C 119.839844 53.640625 121.503906 55.042969 124.179688 57.460938 C 125.734375 59.308594 127.070312 60.65625 128.191406 61.507812 C 129.007812 62.078125 129.507812 62.394531 129.691406 62.453125 L 133.339844 63.898438 C 134.078125 64.324219 134.488281 64.613281 134.570312 64.773438 C 135.039062 65.265625 135.339844 65.925781 135.472656 66.746094 C 135.554688 66.941406 135.566406 67.570312 135.5 68.636719 C 135.445312 69.058594 135.347656 69.457031 135.210938 69.824219 C 135.074219 70.195312 134.898438 70.511719 134.679688 70.773438 L 134.320312 71.113281 C 133.660156 71.457031 133.121094 71.519531 132.703125 71.296875 L 132.082031 71.039062 C 131.652344 70.820312 131.210938 70.542969 130.757812 70.207031 C 130.160156 69.800781 128.96875 68.777344 127.183594 67.132812 C 126.941406 66.894531 126.683594 66.71875 126.40625 66.601562 L 126.328125 66.667969 C 126.304688 66.753906 126.328125 66.90625 126.394531 67.125 C 127.15625 69.15625 127.570312 70.367188 127.636719 70.761719 C 127.847656 71.648438 127.910156 72.332031 127.828125 72.8125 C 127.625 73.722656 127.34375 74.273438 126.984375 74.464844 C 126.601562 74.789062 126.085938 74.996094 125.433594 75.082031 C 124.171875 75.226562 122.558594 74.90625 120.59375 74.121094 C 117.96875 72.980469 116.171875 72.046875 115.210938 71.328125 C 113.132812 69.976562 112.046875 68.808594 111.957031 67.820312 L 112.046875 67.378906 C 112.167969 67.101562 112.363281 66.84375 112.628906 66.605469 L 114.382812 65.21875 L 114.730469 64.851562 C 114.9375 64.601562 115.050781 64.324219 115.0625 64.027344 L 114.976562 63.554688 L 114.683594 63.027344 C 114.417969 62.65625 114.046875 62.261719 113.570312 61.839844 C 113.09375 61.421875 112.554688 60.984375 111.953125 60.535156 C 108.742188 58.234375 106.941406 56.898438 106.542969 56.515625 C 106.179688 56.277344 105.664062 55.714844 104.984375 54.832031 C 104.589844 54.167969 104.460938 53.574219 104.597656 53.054688 C 104.847656 52.285156 105.324219 51.582031 106.027344 50.9375 " fill-opacity="1" fill-rule="nonzero"/></g></g></g><g clip-path="url(#5174b4ca21)"><g clip-path="url(#cb091c7c20)"><g clip-path="url(#46186bbebb)"><path fill="#f17950" d="M 266.34375 40.449219 C 287.414062 60.488281 299.960938 76.265625 303.984375 87.777344 C 307.382812 97.863281 308.683594 105.445312 307.886719 110.515625 C 307.609375 117.023438 306.097656 124.09375 303.359375 131.730469 C 295.785156 149.863281 286.839844 165.308594 276.523438 178.070312 C 259.125 199.789062 244.320312 214.566406 232.113281 222.402344 C 218.261719 231.867188 204.328125 237.820312 190.316406 240.265625 C 181.578125 242.101562 170.199219 243.132812 156.171875 243.359375 C 151.535156 243.433594 146.613281 243.421875 141.402344 243.324219 C 154.804688 254.964844 170.242188 268.09375 187.722656 282.699219 C 213.8125 261.066406 237.960938 239.546875 260.164062 218.140625 C 276.835938 200.917969 288.921875 187.179688 296.425781 176.925781 L 296.429688 176.925781 L 296.425781 176.925781 C 299.753906 172.378906 302.179688 168.519531 303.703125 165.34375 C 315.792969 144.191406 321.003906 124.277344 319.335938 105.597656 C 318.378906 93.28125 315.328125 82.367188 310.1875 72.847656 C 304.324219 62.804688 298.585938 55.886719 292.976562 52.085938 C 285.625 46.617188 277.464844 42.882812 268.492188 40.882812 Z M 266.34375 40.449219 " fill-opacity="0.125" fill-rule="nonzero"/></g></g></g><g clip-path="url(#d5bd75dd1c)"><path fill="#f4f6fc" d="M 346.132812 189.859375 C 344.222656 162.546875 328.792969 172.699219 327.003906 184.148438 C 326.214844 189.191406 324.824219 193.074219 325.113281 207.683594 C 325.140625 209.007812 324.191406 212.074219 323.875 213.257812 C 321.957031 220.402344 310.121094 237.410156 305.726562 243.597656 C 296.460938 256.636719 281.347656 258.667969 280.019531 257.859375 C 281.542969 253.046875 296.164062 236.824219 298.273438 236.558594 C 300.929688 234.34375 304.59375 230.957031 306.125 225.03125 C 310.273438 208.980469 295.449219 207.628906 288.824219 213.296875 C 286.09375 215.632812 286.785156 215.519531 283.910156 217.65625 C 276.984375 222.8125 270.195312 233.089844 256.976562 241.46875 C 243.59375 249.953125 224.636719 255.929688 214.484375 275.050781 C 202.03125 298.507812 207.710938 336.066406 209.738281 345.835938 C 209.878906 346.519531 210.292969 349.476562 211.296875 350.652344 L 250.542969 350.652344 C 252.699219 350.273438 252.902344 349.179688 253.246094 346.332031 C 253.410156 344.976562 252.683594 336.859375 254.230469 327.078125 C 256.679688 311.617188 273.53125 301.804688 278.625 300.386719 C 284.117188 298.855469 310.523438 281.058594 312.265625 278.519531 C 312.859375 277.648438 314.75 276.285156 315.40625 274.847656 C 316.726562 271.945312 336.03125 243.460938 337.980469 239.65625 C 339.917969 235.867188 342.316406 230.140625 342.792969 226.597656 C 343.261719 223.058594 347.332031 207.054688 346.132812 189.859375 " fill-opacity="1" fill-rule="nonzero"/></g><g clip-path="url(#3eee5f279a)"><path fill="#f4f6fc" d="M 28.894531 189.859375 C 30.804688 162.546875 46.234375 172.699219 48.023438 184.148438 C 48.8125 189.191406 50.203125 193.074219 49.914062 207.683594 C 49.886719 209.007812 50.835938 212.074219 51.15625 213.257812 C 53.070312 220.402344 64.90625 237.410156 69.300781 243.597656 C 78.566406 256.636719 93.683594 258.667969 95.011719 257.859375 C 93.484375 253.046875 78.867188 236.824219 76.753906 236.558594 C 74.097656 234.34375 70.429688 230.957031 68.902344 225.03125 C 64.757812 208.980469 79.578125 207.628906 86.203125 213.296875 C 88.933594 215.632812 88.242188 215.519531 91.113281 217.65625 C 98.042969 222.8125 104.832031 233.089844 118.050781 241.46875 C 131.433594 249.953125 150.394531 255.929688 160.542969 275.050781 C 172.996094 298.507812 167.320312 336.066406 165.285156 345.835938 C 165.144531 346.519531 164.734375 349.476562 163.730469 350.652344 L 124.480469 350.652344 C 122.328125 350.273438 122.121094 349.179688 121.78125 346.332031 C 121.617188 344.976562 122.34375 336.859375 120.792969 327.078125 C 118.347656 311.617188 101.496094 301.804688 96.40625 300.386719 C 90.910156 298.855469 64.507812 281.058594 62.761719 278.519531 C 62.167969 277.648438 60.277344 276.285156 59.625 274.847656 C 58.300781 271.945312 38.996094 243.460938 37.046875 239.65625 C 35.109375 235.867188 32.710938 230.140625 32.238281 226.597656 C 31.765625 223.058594 27.695312 207.054688 28.894531 189.859375 " fill-opacity="1" fill-rule="nonzero"/></g></svg>