<svg xmlns="http://www.w3.org/2000/svg" xmlns:xlink="http://www.w3.org/1999/xlink" width="500" zoomAndPan="magnify" viewBox="0 0 375 374.999991" height="500" preserveAspectRatio="xMidYMid meet" version="1.0"><defs><clipPath id="7f207aa03c"><path d="M 187.5 0 C 83.945312 0 0 83.945312 0 187.5 C 0 291.054688 83.945312 375 187.5 375 C 291.054688 375 375 291.054688 375 187.5 C 375 83.945312 291.054688 0 187.5 0 Z M 187.5 0 " clip-rule="nonzero"/></clipPath><clipPath id="967c6f8768"><path d="M 39.5625 155 L 112 155 L 112 290 L 39.5625 290 Z M 39.5625 155 " clip-rule="nonzero"/></clipPath><clipPath id="c94ef56a74"><path d="M 156 293 L 310 293 L 310 313.535156 L 156 313.535156 Z M 156 293 " clip-rule="nonzero"/></clipPath><clipPath id="86dc451c8d"><path d="M 53 293 L 156 293 L 156 313.535156 L 53 313.535156 Z M 53 293 " clip-rule="nonzero"/></clipPath><clipPath id="f1cfda2be3"><path d="M 94 24.785156 L 280 24.785156 L 280 117 L 94 117 Z M 94 24.785156 " clip-rule="nonzero"/></clipPath><clipPath id="4decae3eb5"><path d="M 226 197 L 283 197 L 283 260 L 226 260 Z M 226 197 " clip-rule="nonzero"/></clipPath><clipPath id="c39d8d0a3e"><path d="M 243.96875 188.601562 L 292.402344 211.1875 L 265.40625 269.078125 L 216.972656 246.492188 Z M 243.96875 188.601562 " clip-rule="nonzero"/></clipPath><clipPath id="78d6a3041b"><path d="M 268.1875 199.894531 C 254.8125 193.660156 237.9375 201.542969 230.492188 217.503906 C 223.050781 233.464844 227.855469 251.457031 241.230469 257.695312 C 254.605469 263.933594 271.480469 256.050781 278.925781 240.089844 C 286.367188 224.128906 281.558594 206.132812 268.1875 199.894531 Z M 268.1875 199.894531 " clip-rule="nonzero"/></clipPath><clipPath id="aa11f6885b"><path d="M 226 197 L 283 197 L 283 260 L 226 260 Z M 226 197 " clip-rule="nonzero"/></clipPath><clipPath id="41b2eeb173"><path d="M 243.96875 188.601562 L 292.230469 211.109375 L 265.285156 268.886719 L 217.027344 246.378906 Z M 243.96875 188.601562 " clip-rule="nonzero"/></clipPath><clipPath id="417b251051"><path d="M 243.972656 188.601562 L 292.738281 211.34375 L 265.785156 269.144531 L 217.015625 246.398438 Z M 243.972656 188.601562 " clip-rule="nonzero"/></clipPath><clipPath id="ce9b666fad"><path d="M 268.183594 199.894531 C 254.8125 193.660156 237.9375 201.542969 230.492188 217.5 C 223.050781 233.460938 227.859375 251.457031 241.230469 257.691406 C 254.605469 263.929688 271.480469 256.046875 278.921875 240.085938 C 286.367188 224.125 281.558594 206.132812 268.183594 199.894531 Z M 268.183594 199.894531 " clip-rule="nonzero"/></clipPath><clipPath id="9870678524"><path d="M 89.789062 19.679688 L 282 19.679688 L 282 137.285156 L 89.789062 137.285156 Z M 89.789062 19.679688 " clip-rule="nonzero"/></clipPath><clipPath id="d15e31ec1f"><path d="M 132.539062 19.679688 L 239.269531 19.679688 C 262.878906 19.679688 282.019531 38.820312 282.019531 62.429688 L 282.019531 94.535156 C 282.019531 118.144531 262.878906 137.285156 239.269531 137.285156 L 132.539062 137.285156 C 108.929688 137.285156 89.789062 118.144531 89.789062 94.535156 L 89.789062 62.429688 C 89.789062 38.820312 108.929688 19.679688 132.539062 19.679688 Z M 132.539062 19.679688 " clip-rule="nonzero"/></clipPath><clipPath id="c5e9248231"><path d="M 116 56 L 170 56 L 170 131 L 116 131 Z M 116 56 " clip-rule="nonzero"/></clipPath><clipPath id="f24b33f19e"><path d="M 133.234375 48.019531 L 176.597656 66.789062 L 146.210938 136.996094 L 102.847656 118.226562 Z M 133.234375 48.019531 " clip-rule="nonzero"/></clipPath><clipPath id="fc678ec768"><path d="M 176.585938 66.785156 L 133.222656 48.015625 L 102.839844 118.222656 L 146.203125 136.992188 Z M 176.585938 66.785156 " clip-rule="nonzero"/></clipPath><clipPath id="8758fcf60f"><path d="M 76.285156 31.964844 L 203 31.964844 L 203 114.855469 L 76.285156 114.855469 Z M 76.285156 31.964844 " clip-rule="nonzero"/></clipPath><clipPath id="50a39adb49"><path d="M 117.730469 31.964844 L 161.585938 31.964844 C 184.472656 31.964844 203.03125 50.519531 203.03125 73.410156 C 203.03125 96.300781 184.472656 114.855469 161.585938 114.855469 L 117.730469 114.855469 C 94.839844 114.855469 76.285156 96.300781 76.285156 73.410156 C 76.285156 50.519531 94.839844 31.964844 117.730469 31.964844 Z M 117.730469 31.964844 " clip-rule="nonzero"/></clipPath><clipPath id="83bb006f5c"><path d="M 226 71 L 278 71 L 278 148 L 226 148 Z M 226 71 " clip-rule="nonzero"/></clipPath><clipPath id="4b67e5d79c"><path d="M 220.117188 79.78125 L 264.925781 64.785156 L 289.207031 137.328125 L 244.402344 152.328125 Z M 220.117188 79.78125 " clip-rule="nonzero"/></clipPath><clipPath id="daf40cc341"><path d="M 220.117188 79.78125 L 264.925781 64.785156 L 289.207031 137.328125 L 244.402344 152.328125 Z M 220.117188 79.78125 " clip-rule="nonzero"/></clipPath><clipPath id="8561aab149"><path d="M 191.335938 48.019531 L 318 48.019531 L 318 130.914062 L 191.335938 130.914062 Z M 191.335938 48.019531 " clip-rule="nonzero"/></clipPath><clipPath id="508e99d862"><path d="M 232.78125 48.019531 L 276.636719 48.019531 C 299.527344 48.019531 318.082031 66.578125 318.082031 89.464844 C 318.082031 112.355469 299.527344 130.914062 276.636719 130.914062 L 232.78125 130.914062 C 209.890625 130.914062 191.335938 112.355469 191.335938 89.464844 C 191.335938 66.578125 209.890625 48.019531 232.78125 48.019531 Z M 232.78125 48.019531 " clip-rule="nonzero"/></clipPath><clipPath id="8a5440448c"><path d="M 103.84375 63.628906 L 123.34375 63.628906 L 123.34375 83.128906 L 103.84375 83.128906 Z M 103.84375 63.628906 " clip-rule="nonzero"/></clipPath><clipPath id="5a298ede04"><path d="M 129.875 63.628906 L 149.375 63.628906 L 149.375 83.128906 L 129.875 83.128906 Z M 129.875 63.628906 " clip-rule="nonzero"/></clipPath><clipPath id="79f4946245"><path d="M 155.910156 63.628906 L 175.410156 63.628906 L 175.410156 83.128906 L 155.910156 83.128906 Z M 155.910156 63.628906 " clip-rule="nonzero"/></clipPath><clipPath id="cee17a1068"><path d="M 218.894531 79.6875 L 238.394531 79.6875 L 238.394531 99.1875 L 218.894531 99.1875 Z M 218.894531 79.6875 " clip-rule="nonzero"/></clipPath><clipPath id="cc29a6907e"><path d="M 244.929688 79.6875 L 264.429688 79.6875 L 264.429688 99.1875 L 244.929688 99.1875 Z M 244.929688 79.6875 " clip-rule="nonzero"/></clipPath><clipPath id="463446c751"><path d="M 270.960938 79.6875 L 290.460938 79.6875 L 290.460938 99.1875 L 270.960938 99.1875 Z M 270.960938 79.6875 " clip-rule="nonzero"/></clipPath></defs><g clip-path="url(#7f207aa03c)"><rect x="-37.5" width="450" fill="#f17950" y="-37.499999" height="449.999989" fill-opacity="1"/></g><path fill="#f1f1f1" d="M 173.691406 167.242188 C 145.410156 163.21875 127.855469 176.566406 124.546875 179.355469 C 123.714844 180.0625 122.933594 180.929688 122.175781 181.972656 L 143.785156 289.011719 Z M 173.691406 167.242188 " fill-opacity="1" fill-rule="nonzero"/><path fill="#f1f1f1" d="M 95.753906 188.144531 L 116.613281 289.011719 L 138.125 289.011719 L 118.199219 186.898438 C 114.171875 192.046875 102.050781 194.472656 95.753906 188.144531 Z M 95.753906 188.144531 " fill-opacity="1" fill-rule="nonzero"/><path fill="#f1f1f1" d="M 92.964844 174.757812 C 94.878906 180.46875 97.820312 184.398438 101.425781 186.199219 C 107.910156 172.121094 108.761719 160.644531 103.945312 152.0625 C 97.859375 141.210938 82.519531 134.363281 58.339844 131.699219 C 57.738281 141.804688 53.734375 147.652344 49.320312 151.035156 C 64.089844 152.132812 86.777344 156.804688 92.964844 174.757812 Z M 92.964844 174.757812 " fill-opacity="1" fill-rule="nonzero"/><g clip-path="url(#967c6f8768)"><path fill="#f1f1f1" d="M 111.664062 289.011719 L 88.335938 176.210938 C 81.417969 156.488281 48.585938 155.488281 39.570312 155.59375 L 67.65625 289.011719 Z M 111.664062 289.011719 " fill-opacity="1" fill-rule="nonzero"/></g><path fill="#f1f1f1" d="M 191.976562 150.835938 L 205.070312 150.835938 L 210.386719 140.222656 C 194.621094 138.988281 129.804688 136.226562 111.121094 172.28125 C 110.25 176.972656 108.628906 181.984375 106.246094 187.3125 C 110.449219 187.246094 114.597656 184.644531 117.574219 180.101562 C 118.761719 178.289062 120.019531 176.832031 121.421875 175.652344 C 125.039062 172.601562 144.3125 157.9375 175.003906 162.542969 C 177.660156 155.554688 184.34375 150.835938 191.976562 150.835938 Z M 191.976562 150.835938 " fill-opacity="1" fill-rule="nonzero"/><path fill="#f1f1f1" d="M 332.125 160.558594 C 329.695312 157.460938 326.046875 155.683594 322.109375 155.683594 L 191.976562 155.683594 C 185.820312 155.683594 180.5 159.859375 179.03125 165.835938 L 148.777344 289.011719 L 300.222656 289.011719 C 304.660156 289.011719 306.457031 285.496094 307.179688 282.550781 L 334.46875 171.449219 C 335.40625 167.625 334.554688 163.65625 332.125 160.558594 Z M 276.558594 237.949219 C 273.644531 243.640625 269.035156 248.054688 263.578125 250.375 C 260.871094 251.53125 258.109375 252.105469 255.421875 252.105469 C 252.539062 252.105469 249.742188 251.445312 247.167969 250.128906 C 242.195312 247.582031 238.71875 242.902344 237.382812 236.953125 C 236.082031 231.167969 236.96875 224.847656 239.886719 219.160156 C 242.800781 213.46875 247.410156 209.054688 252.867188 206.734375 C 258.476562 204.34375 264.304688 204.433594 269.277344 206.980469 C 279.386719 212.160156 282.65625 226.054688 276.558594 237.949219 Z M 276.558594 237.949219 " fill-opacity="1" fill-rule="nonzero"/><path fill="#f1f1f1" d="M 267.066406 211.296875 C 265.195312 210.339844 263.144531 209.859375 261.019531 209.859375 C 258.972656 209.859375 256.855469 210.304688 254.765625 211.195312 C 250.351562 213.074219 246.597656 216.6875 244.199219 221.371094 C 241.800781 226.054688 241.058594 231.207031 242.109375 235.890625 C 243.128906 240.410156 245.710938 243.933594 249.378906 245.8125 C 253.050781 247.695312 257.417969 247.730469 261.679688 245.917969 C 266.09375 244.035156 269.847656 240.421875 272.246094 235.738281 C 277.121094 226.222656 274.796875 215.257812 267.066406 211.296875 Z M 267.066406 211.296875 " fill-opacity="1" fill-rule="nonzero"/><g clip-path="url(#c94ef56a74)"><path fill="#f1f1f1" d="M 300.222656 293.859375 L 156.515625 293.859375 C 158.824219 296.433594 160.230469 299.832031 160.230469 303.554688 C 160.230469 307.277344 158.824219 310.675781 156.515625 313.253906 L 300.222656 313.253906 C 305.566406 313.253906 309.917969 308.902344 309.917969 303.554688 C 309.917969 298.210938 305.570312 293.859375 300.222656 293.859375 Z M 300.222656 293.859375 " fill-opacity="1" fill-rule="nonzero"/></g><g clip-path="url(#86dc451c8d)"><path fill="#f1f1f1" d="M 145.683594 293.859375 L 63.265625 293.859375 C 57.917969 293.859375 53.570312 298.210938 53.570312 303.554688 C 53.570312 308.902344 57.917969 313.253906 63.265625 313.253906 L 145.683594 313.253906 C 151.03125 313.253906 155.382812 308.902344 155.382812 303.554688 C 155.382812 298.210938 151.03125 293.859375 145.683594 293.859375 Z M 145.683594 293.859375 " fill-opacity="1" fill-rule="nonzero"/></g><g clip-path="url(#f1cfda2be3)"><path fill="#f1f1f1" d="M 124.554688 87.761719 C 125.710938 87.824219 126.765625 88.339844 127.527344 89.207031 C 128.28125 90.070312 128.652344 91.175781 128.5625 92.320312 L 126.738281 116.054688 L 156.589844 90.179688 C 158.355469 88.652344 160.609375 87.808594 162.941406 87.808594 L 210.847656 87.808594 C 213.179688 87.808594 215.433594 88.652344 217.199219 90.179688 L 247.050781 116.054688 L 245.226562 92.320312 C 245.136719 91.175781 245.507812 90.070312 246.261719 89.207031 C 247.023438 88.335938 248.078125 87.824219 249.234375 87.761719 C 265.929688 86.855469 279.011719 73.035156 279.011719 56.296875 C 279.011719 38.921875 264.875 24.785156 247.496094 24.785156 L 126.292969 24.785156 C 108.914062 24.785156 94.777344 38.921875 94.777344 56.296875 C 94.777344 73.035156 107.859375 86.859375 124.554688 87.761719 Z M 124.554688 87.761719 " fill-opacity="1" fill-rule="nonzero"/></g><g clip-path="url(#4decae3eb5)"><g clip-path="url(#c39d8d0a3e)"><g clip-path="url(#78d6a3041b)"><path fill="#f17950" d="M 243.96875 188.601562 L 292.402344 211.1875 L 265.40625 269.078125 L 216.972656 246.492188 Z M 243.96875 188.601562 " fill-opacity="1" fill-rule="nonzero"/></g></g></g><g clip-path="url(#aa11f6885b)"><g clip-path="url(#41b2eeb173)"><g clip-path="url(#417b251051)"><g clip-path="url(#ce9b666fad)"><path stroke-linecap="butt" transform="matrix(0.67972, 0.316988, -0.316988, 0.67972, 243.970755, 188.602884)" fill="none" stroke-linejoin="miter" d="M 35.62179 -0.0000424452 C 15.951006 0.00146632 0.00165232 19.036619 -0.00286013 42.514629 C -0.000451007 65.995159 15.95162 85.031659 35.622404 85.03015 C 55.300109 85.03116 71.249463 65.996007 71.247054 42.515478 C 71.249365 19.032747 55.299495 0.000967763 35.62179 -0.0000424452 Z M 35.62179 -0.0000424452 " stroke="#f5f5f5" stroke-width="18" stroke-opacity="1" stroke-miterlimit="4"/></g></g></g></g><g clip-path="url(#9870678524)"><g clip-path="url(#d15e31ec1f)"><path fill="#f17950" d="M 89.789062 19.679688 L 281.8125 19.679688 L 281.8125 137.285156 L 89.789062 137.285156 Z M 89.789062 19.679688 " fill-opacity="1" fill-rule="nonzero"/></g></g><g clip-path="url(#c5e9248231)"><g clip-path="url(#f24b33f19e)"><g clip-path="url(#fc678ec768)"><path fill="#f1f1f1" d="M 131.296875 130.683594 C 131.589844 130.546875 131.59375 130.246094 131.324219 129.488281 C 131.191406 129.117188 130.902344 128.300781 130.683594 127.675781 C 130.460938 127.046875 130.050781 125.976562 129.773438 125.296875 C 129.492188 124.613281 129.234375 123.949219 129.203125 123.8125 C 129.101562 123.421875 129.082031 121.039062 129.164062 119.582031 C 129.335938 116.628906 129.863281 113.4375 131.011719 108.445312 C 131.785156 105.070312 131.988281 104.3125 132.820312 101.632812 C 133.355469 99.902344 135.132812 95.078125 135.265625 94.984375 C 135.285156 94.96875 135.46875 95.066406 135.675781 95.199219 C 136.769531 95.890625 138.476562 96.730469 139.972656 97.3125 C 141.019531 97.71875 143.773438 98.417969 145.03125 98.59375 C 147.40625 98.933594 150.039062 98.925781 152.128906 98.578125 C 153.25 98.390625 153.59375 98.316406 154.507812 98.070312 C 157.171875 97.355469 159.203125 96.414062 161.304688 94.925781 C 162.804688 93.867188 163.988281 92.761719 165.03125 91.453125 C 166.851562 89.15625 168.0625 86.503906 168.664062 83.488281 C 169.164062 80.980469 169.238281 78.804688 168.914062 76.128906 C 168.75 74.78125 168.253906 72.722656 167.765625 71.375 C 166.046875 66.59375 162.949219 62.59375 158.882812 59.890625 C 155.8125 57.847656 152.144531 56.667969 148.542969 56.566406 C 144.859375 56.460938 140.875 57.417969 137.246094 59.277344 C 134.390625 60.742188 131.632812 62.84375 129.070312 65.503906 C 125.6875 69.011719 122.628906 73.335938 120.691406 77.34375 C 119.167969 80.503906 118.171875 83.371094 117.324219 87.042969 C 116.144531 92.171875 115.871094 96.636719 116.425781 101.847656 C 116.90625 106.355469 118.355469 111.8125 120.296875 116.40625 C 121.335938 118.863281 122.871094 121.679688 124.300781 123.757812 C 125.765625 125.882812 127.464844 127.839844 128.960938 129.121094 C 129.589844 129.660156 130.96875 130.726562 131.066406 130.75 C 131.097656 130.757812 131.203125 130.726562 131.296875 130.683594 Z M 131.296875 130.683594 " fill-opacity="1" fill-rule="nonzero"/></g></g></g><g clip-path="url(#8758fcf60f)"><g clip-path="url(#50a39adb49)"><path fill="#f1f1f1" d="M 76.285156 31.964844 L 202.890625 31.964844 L 202.890625 114.855469 L 76.285156 114.855469 Z M 76.285156 31.964844 " fill-opacity="1" fill-rule="nonzero"/></g></g><g clip-path="url(#83bb006f5c)"><g clip-path="url(#4b67e5d79c)"><g clip-path="url(#daf40cc341)"><path fill="#f1f1f1" d="M 259.789062 147.3125 C 259.511719 147.152344 259.527344 146.851562 259.863281 146.121094 C 260.027344 145.761719 260.386719 144.972656 260.65625 144.367188 C 260.929688 143.765625 261.429688 142.730469 261.769531 142.078125 C 262.105469 141.421875 262.417969 140.777344 262.460938 140.648438 C 262.59375 140.265625 262.820312 137.894531 262.859375 136.4375 C 262.945312 133.480469 262.6875 130.253906 261.972656 125.179688 C 261.488281 121.753906 261.351562 120.980469 260.75 118.238281 C 260.363281 116.46875 259.007812 111.511719 258.882812 111.40625 C 258.863281 111.390625 258.671875 111.472656 258.453125 111.585938 C 257.308594 112.183594 255.535156 112.875 253.992188 113.324219 C 252.917969 113.640625 250.113281 114.101562 248.84375 114.171875 C 246.449219 114.304688 243.828125 114.074219 241.773438 113.546875 C 240.671875 113.265625 240.335938 113.164062 239.445312 112.839844 C 236.855469 111.898438 234.910156 110.789062 232.941406 109.128906 C 231.539062 107.941406 230.453125 106.738281 229.527344 105.347656 C 227.90625 102.90625 226.925781 100.160156 226.585938 97.101562 C 226.300781 94.558594 226.414062 92.386719 226.964844 89.746094 C 227.246094 88.417969 227.914062 86.410156 228.511719 85.109375 C 230.636719 80.492188 234.0625 76.769531 238.34375 74.425781 C 241.582031 72.652344 245.335938 71.792969 248.929688 71.996094 C 252.609375 72.203125 256.5 73.496094 259.957031 75.664062 C 262.675781 77.363281 265.246094 79.691406 267.570312 82.5625 C 270.644531 86.347656 273.320312 90.917969 274.90625 95.074219 C 276.15625 98.355469 276.902344 101.296875 277.433594 105.027344 C 278.175781 110.238281 278.0625 114.710938 277.066406 119.855469 C 276.203125 124.304688 274.292969 129.617188 271.964844 134.027344 C 270.722656 136.386719 268.953125 139.0625 267.347656 141.011719 C 265.710938 143.003906 263.847656 144.808594 262.25 145.957031 C 261.578125 146.441406 260.113281 147.386719 260.011719 147.398438 C 259.980469 147.402344 259.878906 147.367188 259.789062 147.3125 Z M 259.789062 147.3125 " fill-opacity="1" fill-rule="nonzero"/></g></g></g><g clip-path="url(#8561aab149)"><g clip-path="url(#508e99d862)"><path fill="#f1f1f1" d="M 191.335938 48.019531 L 317.941406 48.019531 L 317.941406 130.914062 L 191.335938 130.914062 Z M 191.335938 48.019531 " fill-opacity="1" fill-rule="nonzero"/></g></g><g clip-path="url(#8a5440448c)"><path fill="#f17950" d="M 113.625 63.628906 C 112.980469 63.628906 112.34375 63.691406 111.714844 63.816406 C 111.085938 63.941406 110.472656 64.128906 109.882812 64.375 C 109.289062 64.621094 108.722656 64.921875 108.191406 65.277344 C 107.65625 65.632812 107.164062 66.039062 106.707031 66.492188 C 106.253906 66.949219 105.847656 67.441406 105.492188 67.976562 C 105.136719 68.507812 104.835938 69.074219 104.589844 69.667969 C 104.34375 70.257812 104.15625 70.871094 104.03125 71.5 C 103.90625 72.128906 103.84375 72.765625 103.84375 73.410156 C 103.84375 74.050781 103.90625 74.6875 104.03125 75.316406 C 104.15625 75.945312 104.34375 76.558594 104.589844 77.152344 C 104.835938 77.746094 105.136719 78.308594 105.492188 78.839844 C 105.847656 79.375 106.253906 79.871094 106.707031 80.324219 C 107.164062 80.777344 107.65625 81.183594 108.191406 81.539062 C 108.722656 81.898438 109.289062 82.199219 109.882812 82.445312 C 110.472656 82.6875 111.085938 82.875 111.714844 83 C 112.34375 83.125 112.980469 83.1875 113.625 83.1875 C 114.265625 83.1875 114.902344 83.125 115.53125 83 C 116.160156 82.875 116.773438 82.6875 117.367188 82.445312 C 117.960938 82.199219 118.523438 81.898438 119.054688 81.539062 C 119.589844 81.183594 120.085938 80.777344 120.539062 80.324219 C 120.992188 79.871094 121.398438 79.375 121.753906 78.839844 C 122.113281 78.308594 122.414062 77.746094 122.660156 77.152344 C 122.902344 76.558594 123.089844 75.945312 123.214844 75.316406 C 123.339844 74.6875 123.402344 74.050781 123.402344 73.410156 C 123.402344 72.765625 123.339844 72.128906 123.214844 71.5 C 123.089844 70.871094 122.902344 70.257812 122.660156 69.667969 C 122.414062 69.074219 122.113281 68.507812 121.753906 67.976562 C 121.398438 67.441406 120.992188 66.949219 120.539062 66.492188 C 120.085938 66.039062 119.589844 65.632812 119.054688 65.277344 C 118.523438 64.921875 117.960938 64.621094 117.367188 64.375 C 116.773438 64.128906 116.160156 63.941406 115.53125 63.816406 C 114.902344 63.691406 114.265625 63.628906 113.625 63.628906 Z M 113.625 63.628906 " fill-opacity="1" fill-rule="nonzero"/></g><g clip-path="url(#5a298ede04)"><path fill="#f17950" d="M 139.65625 63.628906 C 139.015625 63.628906 138.378906 63.691406 137.75 63.816406 C 137.117188 63.941406 136.507812 64.128906 135.914062 64.375 C 135.320312 64.621094 134.757812 64.921875 134.222656 65.277344 C 133.6875 65.632812 133.195312 66.039062 132.742188 66.492188 C 132.285156 66.949219 131.882812 67.441406 131.523438 67.976562 C 131.167969 68.507812 130.867188 69.074219 130.621094 69.667969 C 130.375 70.257812 130.191406 70.871094 130.066406 71.5 C 129.9375 72.128906 129.875 72.765625 129.875 73.410156 C 129.875 74.050781 129.9375 74.6875 130.066406 75.316406 C 130.191406 75.945312 130.375 76.558594 130.621094 77.152344 C 130.867188 77.746094 131.167969 78.308594 131.523438 78.839844 C 131.882812 79.375 132.285156 79.871094 132.742188 80.324219 C 133.195312 80.777344 133.6875 81.183594 134.222656 81.539062 C 134.757812 81.898438 135.320312 82.199219 135.914062 82.445312 C 136.507812 82.6875 137.117188 82.875 137.75 83 C 138.378906 83.125 139.015625 83.1875 139.65625 83.1875 C 140.296875 83.1875 140.933594 83.125 141.5625 83 C 142.195312 82.875 142.804688 82.6875 143.398438 82.445312 C 143.992188 82.199219 144.554688 81.898438 145.089844 81.539062 C 145.621094 81.183594 146.117188 80.777344 146.570312 80.324219 C 147.023438 79.871094 147.429688 79.375 147.789062 78.839844 C 148.144531 78.308594 148.445312 77.746094 148.691406 77.152344 C 148.9375 76.558594 149.121094 75.945312 149.246094 75.316406 C 149.371094 74.6875 149.433594 74.050781 149.433594 73.410156 C 149.433594 72.765625 149.371094 72.128906 149.246094 71.5 C 149.121094 70.871094 148.9375 70.257812 148.691406 69.667969 C 148.445312 69.074219 148.144531 68.507812 147.789062 67.976562 C 147.429688 67.441406 147.023438 66.949219 146.570312 66.492188 C 146.117188 66.039062 145.621094 65.632812 145.089844 65.277344 C 144.554688 64.921875 143.992188 64.621094 143.398438 64.375 C 142.804688 64.128906 142.195312 63.941406 141.5625 63.816406 C 140.933594 63.691406 140.296875 63.628906 139.65625 63.628906 Z M 139.65625 63.628906 " fill-opacity="1" fill-rule="nonzero"/></g><g clip-path="url(#79f4946245)"><path fill="#f17950" d="M 165.6875 63.628906 C 165.046875 63.628906 164.410156 63.691406 163.78125 63.816406 C 163.152344 63.941406 162.539062 64.128906 161.945312 64.375 C 161.351562 64.621094 160.789062 64.921875 160.253906 65.277344 C 159.722656 65.632812 159.226562 66.039062 158.773438 66.492188 C 158.320312 66.949219 157.914062 67.441406 157.558594 67.976562 C 157.199219 68.507812 156.898438 69.074219 156.652344 69.667969 C 156.40625 70.257812 156.222656 70.871094 156.097656 71.5 C 155.972656 72.128906 155.910156 72.765625 155.910156 73.410156 C 155.910156 74.050781 155.972656 74.6875 156.097656 75.316406 C 156.222656 75.945312 156.40625 76.558594 156.652344 77.152344 C 156.898438 77.746094 157.199219 78.308594 157.558594 78.839844 C 157.914062 79.375 158.320312 79.871094 158.773438 80.324219 C 159.226562 80.777344 159.722656 81.183594 160.253906 81.539062 C 160.789062 81.898438 161.351562 82.199219 161.945312 82.445312 C 162.539062 82.6875 163.152344 82.875 163.78125 83 C 164.410156 83.125 165.046875 83.1875 165.6875 83.1875 C 166.332031 83.1875 166.964844 83.125 167.597656 83 C 168.226562 82.875 168.835938 82.6875 169.429688 82.445312 C 170.023438 82.199219 170.585938 81.898438 171.121094 81.539062 C 171.65625 81.183594 172.148438 80.777344 172.601562 80.324219 C 173.058594 79.871094 173.464844 79.375 173.820312 78.839844 C 174.175781 78.308594 174.476562 77.746094 174.722656 77.152344 C 174.96875 76.558594 175.15625 75.945312 175.28125 75.316406 C 175.40625 74.6875 175.46875 74.050781 175.46875 73.410156 C 175.46875 72.765625 175.40625 72.128906 175.28125 71.5 C 175.15625 70.871094 174.96875 70.257812 174.722656 69.667969 C 174.476562 69.074219 174.175781 68.507812 173.820312 67.976562 C 173.464844 67.441406 173.058594 66.949219 172.601562 66.492188 C 172.148438 66.039062 171.65625 65.632812 171.121094 65.277344 C 170.585938 64.921875 170.023438 64.621094 169.429688 64.375 C 168.835938 64.128906 168.226562 63.941406 167.597656 63.816406 C 166.964844 63.691406 166.332031 63.628906 165.6875 63.628906 Z M 165.6875 63.628906 " fill-opacity="1" fill-rule="nonzero"/></g><g clip-path="url(#cee17a1068)"><path fill="#f17950" d="M 228.675781 79.6875 C 228.03125 79.6875 227.398438 79.75 226.765625 79.875 C 226.136719 80 225.527344 80.183594 224.933594 80.429688 C 224.339844 80.675781 223.777344 80.976562 223.242188 81.332031 C 222.707031 81.691406 222.214844 82.097656 221.761719 82.550781 C 221.304688 83.003906 220.902344 83.496094 220.542969 84.03125 C 220.1875 84.566406 219.886719 85.128906 219.640625 85.722656 C 219.394531 86.316406 219.210938 86.925781 219.082031 87.558594 C 218.957031 88.1875 218.894531 88.824219 218.894531 89.464844 C 218.894531 90.105469 218.957031 90.742188 219.082031 91.371094 C 219.210938 92.003906 219.394531 92.613281 219.640625 93.207031 C 219.886719 93.800781 220.1875 94.363281 220.542969 94.898438 C 220.902344 95.433594 221.304688 95.925781 221.761719 96.378906 C 222.214844 96.832031 222.707031 97.238281 223.242188 97.597656 C 223.777344 97.953125 224.339844 98.253906 224.933594 98.5 C 225.527344 98.746094 226.136719 98.929688 226.765625 99.054688 C 227.398438 99.179688 228.03125 99.246094 228.675781 99.246094 C 229.316406 99.246094 229.953125 99.179688 230.582031 99.054688 C 231.210938 98.929688 231.824219 98.746094 232.417969 98.5 C 233.011719 98.253906 233.574219 97.953125 234.109375 97.597656 C 234.640625 97.238281 235.136719 96.832031 235.589844 96.378906 C 236.042969 95.925781 236.449219 95.433594 236.804688 94.898438 C 237.164062 94.363281 237.464844 93.800781 237.710938 93.207031 C 237.957031 92.613281 238.140625 92.003906 238.265625 91.371094 C 238.390625 90.742188 238.453125 90.105469 238.453125 89.464844 C 238.453125 88.824219 238.390625 88.1875 238.265625 87.558594 C 238.140625 86.925781 237.957031 86.316406 237.710938 85.722656 C 237.464844 85.128906 237.164062 84.566406 236.804688 84.03125 C 236.449219 83.496094 236.042969 83.003906 235.589844 82.550781 C 235.136719 82.097656 234.640625 81.691406 234.109375 81.332031 C 233.574219 80.976562 233.011719 80.675781 232.417969 80.429688 C 231.824219 80.183594 231.210938 80 230.582031 79.875 C 229.953125 79.75 229.316406 79.6875 228.675781 79.6875 Z M 228.675781 79.6875 " fill-opacity="1" fill-rule="nonzero"/></g><g clip-path="url(#cc29a6907e)"><path fill="#f17950" d="M 254.707031 79.6875 C 254.066406 79.6875 253.429688 79.75 252.800781 79.875 C 252.171875 80 251.558594 80.183594 250.964844 80.429688 C 250.371094 80.675781 249.808594 80.976562 249.273438 81.332031 C 248.742188 81.691406 248.246094 82.097656 247.792969 82.550781 C 247.339844 83.003906 246.933594 83.496094 246.578125 84.03125 C 246.21875 84.566406 245.917969 85.128906 245.671875 85.722656 C 245.425781 86.316406 245.242188 86.925781 245.117188 87.558594 C 244.992188 88.1875 244.929688 88.824219 244.929688 89.464844 C 244.929688 90.105469 244.992188 90.742188 245.117188 91.371094 C 245.242188 92.003906 245.425781 92.613281 245.671875 93.207031 C 245.917969 93.800781 246.21875 94.363281 246.578125 94.898438 C 246.933594 95.433594 247.339844 95.925781 247.792969 96.378906 C 248.246094 96.832031 248.742188 97.238281 249.273438 97.597656 C 249.808594 97.953125 250.371094 98.253906 250.964844 98.5 C 251.558594 98.746094 252.171875 98.929688 252.800781 99.054688 C 253.429688 99.179688 254.066406 99.246094 254.707031 99.246094 C 255.351562 99.246094 255.984375 99.179688 256.617188 99.054688 C 257.246094 98.929688 257.855469 98.746094 258.449219 98.5 C 259.042969 98.253906 259.605469 97.953125 260.140625 97.597656 C 260.675781 97.238281 261.167969 96.832031 261.621094 96.378906 C 262.078125 95.925781 262.480469 95.433594 262.839844 94.898438 C 263.195312 94.363281 263.496094 93.800781 263.742188 93.207031 C 263.988281 92.613281 264.175781 92.003906 264.300781 91.371094 C 264.425781 90.742188 264.488281 90.105469 264.488281 89.464844 C 264.488281 88.824219 264.425781 88.1875 264.300781 87.558594 C 264.175781 86.925781 263.988281 86.316406 263.742188 85.722656 C 263.496094 85.128906 263.195312 84.566406 262.839844 84.03125 C 262.480469 83.496094 262.078125 83.003906 261.621094 82.550781 C 261.167969 82.097656 260.675781 81.691406 260.140625 81.332031 C 259.605469 80.976562 259.042969 80.675781 258.449219 80.429688 C 257.855469 80.183594 257.246094 80 256.617188 79.875 C 255.984375 79.75 255.351562 79.6875 254.707031 79.6875 Z M 254.707031 79.6875 " fill-opacity="1" fill-rule="nonzero"/></g><g clip-path="url(#463446c751)"><path fill="#f17950" d="M 280.738281 79.6875 C 280.097656 79.6875 279.460938 79.75 278.832031 79.875 C 278.203125 80 277.589844 80.183594 276.996094 80.429688 C 276.40625 80.675781 275.839844 80.976562 275.308594 81.332031 C 274.773438 81.691406 274.277344 82.097656 273.824219 82.550781 C 273.371094 83.003906 272.964844 83.496094 272.609375 84.03125 C 272.253906 84.566406 271.949219 85.128906 271.707031 85.722656 C 271.460938 86.316406 271.273438 86.925781 271.148438 87.558594 C 271.023438 88.1875 270.960938 88.824219 270.960938 89.464844 C 270.960938 90.105469 271.023438 90.742188 271.148438 91.371094 C 271.273438 92.003906 271.460938 92.613281 271.707031 93.207031 C 271.949219 93.800781 272.253906 94.363281 272.609375 94.898438 C 272.964844 95.433594 273.371094 95.925781 273.824219 96.378906 C 274.277344 96.832031 274.773438 97.238281 275.308594 97.597656 C 275.839844 97.953125 276.40625 98.253906 276.996094 98.5 C 277.589844 98.746094 278.203125 98.929688 278.832031 99.054688 C 279.460938 99.179688 280.097656 99.246094 280.738281 99.246094 C 281.382812 99.246094 282.019531 99.179688 282.648438 99.054688 C 283.277344 98.929688 283.890625 98.746094 284.484375 98.5 C 285.074219 98.253906 285.640625 97.953125 286.171875 97.597656 C 286.707031 97.238281 287.199219 96.832031 287.65625 96.378906 C 288.109375 95.925781 288.515625 95.433594 288.871094 94.898438 C 289.226562 94.363281 289.53125 93.800781 289.773438 93.207031 C 290.019531 92.613281 290.207031 92.003906 290.332031 91.371094 C 290.457031 90.742188 290.519531 90.105469 290.519531 89.464844 C 290.519531 88.824219 290.457031 88.1875 290.332031 87.558594 C 290.207031 86.925781 290.019531 86.316406 289.773438 85.722656 C 289.53125 85.128906 289.226562 84.566406 288.871094 84.03125 C 288.515625 83.496094 288.109375 83.003906 287.65625 82.550781 C 287.199219 82.097656 286.707031 81.691406 286.171875 81.332031 C 285.640625 80.976562 285.074219 80.675781 284.484375 80.429688 C 283.890625 80.183594 283.277344 80 282.648438 79.875 C 282.019531 79.75 281.382812 79.6875 280.738281 79.6875 Z M 280.738281 79.6875 " fill-opacity="1" fill-rule="nonzero"/></g></svg>